<mxfile host="app.diagrams.net" agent="Mozilla/5.0 (Windows NT 10.0; Win64; x64) AppleWebKit/537.36 (KHTML, like Gecko) Chrome/136.0.0.0 Safari/537.36" version="27.0.6">
  <diagram name="Page-1" id="ei6JAKOL2skmrkSTt12H">
    <mxGraphModel dx="1426" dy="743" grid="1" gridSize="10" guides="1" tooltips="1" connect="1" arrows="1" fold="1" page="1" pageScale="1" pageWidth="850" pageHeight="1100" math="0" shadow="0">
      <root>
        <mxCell id="0" />
        <mxCell id="1" parent="0" />
        <mxCell id="hMY7HIOHffCvBzzPZQcq-1" value="" style="shape=image;verticalLabelPosition=bottom;labelBackgroundColor=default;verticalAlign=top;aspect=fixed;imageAspect=0;image=data:image/png,iVBORw0KGgoAAAANSUhEUgAAAokAAAK/CAYAAAAF9FeRAAAAAXNSR0IArs4c6QAAAARnQU1BAACxjwv8YQUAAAAJcEhZcwAADsMAAA7DAcdvqGQAAMW7SURBVHhe7N0xbtvI/zbwh+8ZsskFJAP2KhcYIr8FtpPdGIuFW3Xk/rGF3LgTkBhw54YsFrbcuRXWRpqQXYCNIV0gigSYvEBi3WHegqQ0HJLSUJZjx3k+gJCYHM1whiPqq5mhZP3f//2fBBERERGRwpJSMkgkIiIiopz/p28gIiIiImKQSEREREQFzz5I9G3A9vWtRERERLTM2kGiawFW+mAQ9oDstJH9GAjdtNFdPRVVYfsRERGtZe0gsS8BKYHI0/c8Ld0hMOzqWxUxYNv6xieklf671QCaO8n/Rfovrcb2IyIiWsvaQSJ9JzsCgACaABpbybZW+i+txvYjIiJaSz5IjAHfXczQWRZgu0CcS1RP7Cv52cmsXzZV7YZqQsC1F+VmaXPCxX43BOJwkbd+nCbT4b4NWE1gNFLKTcsGlPLspF3m5Sjl5uoAw3rU1gIaANAEBICdpp5Aa+j0QG0L0I8vd3Baw2XTsba7SOeGyjStDYRpYnXqVm0Qyy6WiYrjW6fczLJ6FBi0HxEREeVJTRTl/w4cKSHy21SRJ6Xw9K2JyJNSOFLOs4yk9ISUgJSeWk4gpRBKumyzI6UTaBuVY4KQ0kv3R0Hx+XLF8UmZHJNYUj8ZSSmwyMNLyw2i5LgBpdya9dicSDmobFN64Gq5nkgOJNf26UnKRF56ggKl8ulJDBwpoaSVweJEZGUHXvJ3rgyn5CREUjpicXx1yjWpBxEREd1LYbq50cj/3T5KBl/WcXoI9PrpIA4ANIDuZTE//wQ4uFTSpdpHwPhE25gSB4AcAt128nejXXz+xojFusatVlJ2u7EYmIrSZOvUYzOyI1A0GsBQAmn7ACFw2AL6WkO1u0AP+SFR4aUN20jW9B0cJc/J1vTljIBgmDZImp9+gk/GwKW+MLQBHB0AJ8owr1G5NepBREREaytMN+uzeFYHGOUSGYqBsVBilEz6/q+ajJL7CgoaQGtUPnv5FJeVrVOPzWgDQQvYbSrTr9o8d3wL4EI7uelj9wIY36oZ1uCUnGRVCIyy6V5NYwsYTfStyz1YPYiIiEiVCxLdJoAeEKV3LksJyJKRPyNVgVEMjLVNOwK4LVtPVhVoPlGPWo92XzlpEXDZAwbNxQlo7CUB3TyN9lh6C/h9tAExLl8vGN/Wv9P40epBRET0cylMN+80F4M+cQy4644kAjjygBP1foIY8Evy6/aAQScpby5N2+op2x7KSLkvIhtNXeOr9B6tHr4NuL7S0OlceE4DCJDcxZML2OL0+YVwfnN6LaCjlRvHQGcA9OoGdY9YDyIiop+JukAxCpL7BbJhGSGkDJRt+j0GpQ/t3oHIU/IUyQ0rjn7jilzcxzDPJ02rCpyS8tK0qjrHl6VX6+1k91ikN6ZkDy9SjsFZ3F+R7UsyW12PjfNEctBqJaoKDsrSpWc218DpzSdO1iiB0rBCSq8kbVmDZfRGVu9oqlPu/DlL6kFERET3ZkkppR44PjTXAnYioFu2To2IiIiIHt13DxJjH2gOgGhYfi8DERERET2+wprEjYvz36HcHABBydfEEBEREdHT8d1HEomIiIjo6ZsHiZal76KHwJCciIiIfgQcSSQiIiKigodfk0hEREREPxwGiURERERUUCNIjOEeW3Cn+nadaToiIqKieKZvIXr+Nt3vN5GfcZAYXjdx8TpAf1vfk2ea7kcVT13Yxxascxf+DIhvbFjX/Ck4eprCa+tZ98/4xoZ1bME69/Vd9APKzmfzX55P+nHVve5uut9vMj+zG1emLqwBELzto63vU5mmqxBeW9j9rG9VvA4g/1gn5w2Z+bD/maD3dx/4ZGP38wh45SD4a736PoqZD/ufw8LvZ889dhvTBsVwj5sY/x5h+OYZfzPp1IU13We/vY+ZD/tfYPhX3d9SfwBTF/bs6Hn3Wfqx1Hp9rHnd3XS/31B+BkFiCPd4FziQK0YHTdMtF9/Y6OCyULGq7bSGLNjVgnn/3MLkt/udP6LvLby28H6b/fY+ntL1leeTnprv8frYdL/fVH4rp5vD612j6WPTdKt8+DJC60XxRER3wMF2A/65BevYgn0Tp3tCuMfJNnV4NxluteHepNPD6cOuGAKOpy7sNO9k+sqFe27Dz83pxwhz+dkVay9jhNd2Pt38eNcVwi3UfU13E4xe72ujnyEmXx3sb6dD5ccWrPOsDjbcG39RftaGU3deP3+62J+1X6ith5hPDR7b8Gch3PNsqtCFelYK56Ky/WL411mei0exfUzP2wqPXt+StKX9VHlNLF0f/J3bb26T5ca4/Saw84uWp9bGKGu7inY2PW/G1DyOLdjnbtJ/0r/dafIBLd8G5de1xOp2Mb7+pX26+XGE0cem0jYV52OT1zWtXbLXUHI+F8lMz1sdhTxLX0er2xmG/cX4fJQd27r1faDrlWm7GHs2rw/D665hvzepB2Ce39r9Si4zcSTeOTLSt+tM060USOedIwMppZSR8v+84EpI707fBulMitvEVbA4rrtAOu/050bSuxLS+RTIaL49ksEVJLTyvTNIceUt0t15Upx5Soq0jDMhvUmklBtJ70xI8ekeLXQXSPEOEoXjry/6tDiWsnbLtuMqrX16foO7tM65dgmk8w4SZ0q7SCmjiZNsW2xK3HnzejiTZK96PHLiSHGWlqWaONLR2s87E9L5pLSzjKR3VqyP0Xkz9lj1Ne+nC9WvIflo7bfhcu88Kd4JKc4c6aXtK6WU0SRJO99i3M6pVefNVFquemzzPpS9vrKthtc1o3Yxvv7JtP3Ltis2fV0raZdo4khxJqRQ30vqnreVzF9Hpu0spVl/MTofG6/vhq9XddtllZJ+8EO+PnKWXHdL6lva703rYZrfPfpVdZCYXnxXNoxpOhMTR+IdFg+9QaRMO1DxBBRPYiSdkheB3tGiT6LQyaSsOCG6iVPoyN5Z8dikNMzvO/HOlDYuacskzaKdchcJvR5VF5uqF1baZsX0Mjm3NdpvHmzcledWqeS8GXuk+q7VT5fte6z223S52QeY/FYpc33YvJ3nlp43U1FlucEVtODK9LpWoqxdDK9/Ui7aQE+r2uh1bUl50Seh1GWN87bCWq+jTGk7p1b2F5Pzsfn6bvZ6VWFZuyz1fF4fOVXnakk++X5fQa+HcX7361cV080x/H8Pgd8v0X2h71OZpjMTz8YQv0eQbyWi3wXEr3t6EmB2i/GrneJUKQ6wpx7D7APGL7egrWzE+28tJV2MD19a2C+bIn/RzS1Sjad+fkj32II1uICzrRzJzMfgpT6Nm7qbYPRyS9/6CJJp5eithPzbgyhMO6f1UNozulssAYinA0A5L/FsDOe3rtbOANAA0MKW1i/i2RjOdrskPYDpe1x8vcCu2sbZo+Rmm+5fQxy9iBBNT+Fe27DPi8PxRuethsepr3k/zbmb5M6V7jHaDxsuN5xeQPx+VOzDiDFB+lo3bmfl2cvOm6npKS4qrge335BfVmN4XTNtF7PrXyq9NlXWdcPXtXg6QKv0NZQQvzST/6xx3pYzfx0Zt3NqZX8xOR8br++Gr1drtMtSz+X1oau47hr3e8N6GOd3336lR40yi0IrIlSVaTpTZUPHOn3oW8qSCDvdVkhXiJoD6VRF0XfBfGg2qacjg9zIR1T8dH3nSaEfh5TVn9oeQ1lb6e2aS5Ovp36OvDP9E1+qoi2WtkPZOasl+bSZ5WB83mp4nPqa9VOdfq5We/j2K7d+uWXT1LKkP5u188LS82aq4rVWNipicl2r0y6ldS5c/xLFURtNRd9e97pWWtdkT/58ltXhXsxeR7XaObWyHcrqop+PsjT3tMnr1TrtstRzeX1oqq67pXVI9uT6vWk9TPMrrWsNxZHEmY/OR8D7szpCBWqkMxbi/Wd94WZRdKfGvXEScf93kYvCkY4wFG6AKUT4bexgAH+qLN6cpYtF/32vpAOc3/poZ6NpsxD+dQeH0D7ZvNhD69sJXCW/eBbCPe9g8Ot9RlvDkoW764ln40JbAcCHL8mNQYU0sw8YzOsZ4/ZbcnNLIsTkKzD6eKosgs7ab4Je4StJip/8crb30br7AL2GSRuqi8pDuMcli8yvTzB+vZ/rj0bnzdhj1de8ny5kN3To2/Go7bfZcpPzcfGfsgh/ltxc0bnrLe5ENG7nzIrzZuqXHYjP7/M3CMyS+l5ooyKm1zWzdjG9/iVuvwklbVK2rbbLhq9rjRet8tfQeQeD9OY5YJ3ztor568i0nROr+4vR+dh4fTd8vardLis8l9dHTvV117jfG9bDOL979ivtK3Bi+OdNDH5d9f0+punMxDc2mh+1Qc+q7+ub+rAH2RCpgHh9gNa3Q1x8BZwDif528h1FF2nyZFu+jGxbIk5OwOesfAHn4BL9NGCapzlv4vBr+ucrAQFg9HUEvPIg1em+WQj3311czNM68H47QjeXX02zEPY/uxhBwDsYols2XbJS8hVFWbsUOQje9nF7bs3rKX6PMHxxCmtwkdTzT6TfsSjg/T1E9y75frrol/fofLxQzkkPl38oUxZTN8mjICkzd5ZnMfxPHQw+j+b5Ob/3cPQmn5/93zhp/8wrAefXHvpv1NxqnDcT6ffxfff6Amb9dOl3YDqI3vaTPB+x/TZV7vz1/NqDh8HydoFhO9c5b6ZmPtx/k+sTICB+7+ESJ8Wv01h5XYNRuyD9jjbz619y12NnkPVnQLz20PtfF201WNjwda1YZoDL/92io15fXhiet1oMXkdG7WzaX2qej03Wd+PXK8N2qeM5vD5Mr7uleZX1e5N61Mnvfv0qFyTGNzaaXw5WnmzTdD+UqQt7uo9hWWBKpeLv8N1RT8nPVl96GJv6/jKiZX7U6xVfH09Lbrq58WZoFPiZpvtRxLMY2O7j4NvJyqFXWlCnqH8GP1t96SFUT0cRbdKPeb3i6+OpMfjFlecvvLGx+3EE8TrgSKKJwvSEMqz9HP1s9aXNK5mS0qe1iDbiR7xe8fXxZDFIJCIiIqKC4t3NRERERPTTY5BIRERERAUMEomIiIiogEEiERERERXUCBJjuMdW4TdWi0zT0fcUb/irfTadH9Fj2nR/3nR+ph6r3Odi0+236fyIvjfjIDG8buLidbDylnTTdLSe8NqCdR3qmyvFN8mPhDf/9fVda9l0fk9NVr/c47ysrsnPv2Vp7Brn5HtQf8ZxUz/p+CP4WV8fj1XuU/Wz9oNV6rbL9xbfuLBz19/yn43bdD02nd9jSa71buEn+DLrvC+YBYlTF7ufHQSrvkPQNN0S8dSFnR588ubrwzf4fcGfQ4z3n1H4vcplGm+GkAcORMlvUq5j0/k9hHgWwr9Z7wUf3QHe3xLyrfIofHF88rNJu+ghStP0sLvyxfb9CeXLdNX/L8RTH67yerPOld9BfgpmPuzSIL3Mz/v6eKxyn6aftx8sV79dvqfkl9x2cJm7/pZ9v+Om67Hp/AzUuq6ZSn6rG6/3V/zU3ur3hRy5UiCdd5DORN+uM01XLfokpDjzZHCnbJs4Upx5ajKqKbi633nRbTq/TYkmnnTOhHQ+BTLSdxoJpPPOWfnc6JOQ0PvknSfFVZDf9miS1yLOPBnl/q+luhJSnDkyuFvsiSZesi2X8vFEn4QUn/Qj36xN9+dN52fqscp9LjbdfpvO77n7mdrrQa5rd54US2Mws/cF3cqRxPB612j62DTdMh++tND7K//D8o3tPobaSI4+2mgd23DvOYpTyPPchVsYwUymGBfD4cVyk2kGG642bK5OR+pTmskIVLKWc1G++ikjzO2rXO85C+GeK3mno0LFnzmKEeaOzy7P0zC/QtuVtEuaEr4yRZuv//qS0TAbp7Mt9P8aom/wo+WlZrcYY4yOUo/iCHaMD18A7099dBHAt1t9y3IzX5taKT7u0zbi1715O6j/R9oHT365xPCvPtovFnsa210MfwNO0nKLUxJKXyxMz6zuVyavDyD91YhjC82PI4w+Nle0yXN5fRh6rHLL8uR1sl5+K9olS7fZ6+TqdjE5H0rqlcdX57qRpd39DFwMlDwLZa+uR8asn5rlV8ir5LwZt1+N65pJuTl3E4zg4GhFDLbsfaGUHjXmTBwJg5EV43QrRJ8cKc4c6U0iGSmjiTmTJI062phtd9aKzCPpXaWjT/M8IxlcQeKdMqJyF0jnTCTHNt8WSe+s+IkguIIUV8po1l0gnXdCeuox33mlI6TBlVjySSCSjnpMqrRdvIk6KuRIcSak0M6NdwYprrxFfcuOxTS/GufDOxPS+aS0n4ykd7bsk89yyaiXkI5yjPcycSTUukyc4ietsraSadqnMpJ450mR9Tf1/3PLR0z1T7nBlf788k/9Rv3K9PUhZdo/yrZX+bFfH0Yeq1xeJ8uPxTS/Gu2y6evkwpJ2MT0fNY7P9LohZUXbVlpWD8N+mrMkvxqvI9P2M7qu1Sg3E30Sy9+DVr4vlKsOEk0zMU1Xx10ko0kgvSuRvEjnOwLpVE2F1epkC9GniouNlp9nXG4kHT2wKH3BlHSUiVO4YOQUyspvL3vmyo4jSwIc4/zqnY/5xUWZ3lzLXSCdM+QDugeRBFO5+lWco8qL31Okn29N/jVR0gbpuVz5mi8tx/T1sbwflirpc+r2snye0utjpccqt9AnFLxOGuVn3i4bvE7qSspaMD0fpsdX77qht9dSS+ph2k9zKvfVeR2Zt9+yfpOoU+7CQ70HVUw3x/D/PQR+vyxZNKoyTVfTiwYa2210/xji4NsAH7Ih4ul7XHy9wK4yRDt/aD8ObibGhy8t7JcNz77oLqa5Zz4GL/dRejvO3QSjl1uLv2cfMH65pQ3hxnj/rYW9XBs1sPVyhME0HT6e+bD/28HlmyWDv3cToGQhdDwdoPVbt3LYWF2Qm03N5tpucAFne1E74/xqno/uX0McvYgQTU/hXtuwzyumb1Z50Ub/L4ngV+Dkn+Tmpgf7qolXO1CXM8ezMVrK9Gy6Fe8/61NLq4XXJe2We7jQJ1w2pXqRdvKamE9ZzG4xfrWj9f0QExzk+rNJvwLqvD4Wry29tSv94K+PVR6rXF4n79kP6rTLJq+Tuop2AeqcD8PjM7xuZKK7UfFaUaWyHob9VFeVX53XUY32W3ldq1Ouov2HvNdyv0p61CizqH5ppJswTbdSZXSsfRpZ9QmytkA6peVKKe+CxSjVXdVNCYafcqvqN/9kGknvquKTg6Lqk4I+PajsyU0DJOcrf6NCkiZftml+pXWtZfm0p6ngkyPFu3SoX//UZqj0GErqV9Y2tT4FPwnV/T765OT6WFl99REV034lZXmbVr0+gisU0y7x/F4feY9V7rL+wuvk6vxqtUupDV0nK9pFyprno6B4fKVto4/Ezpm2Q6K6Hob9VFOZX1mbVClLW9F+K69rZXk9ouJI4sxH52OyML8y0kWNdCbuJhh9PYSbfVpE8jUm7vkuxr8fLT6NbO+jdfeh8B1ASVp9UaqJNnYwgK+Ui1m6WPnf94ttL/bQ+nZScnwdDH7Nj6KG04viSFPVJ5XtfTif38O/OcVku1/+SXMuLlkInWi8aGH08VT56pK0DucdDL46uU9Wzm+LGxXiWQj/uoND5D/xGednfD5CuIWbQGKE1ycYr7xdf7X2mz6GbyP0cILOP3o5BmY+Ose21g9CuNPiiEVj+wBQ2ia8sdH82LrX1z59f20c/TqAfR3Oz112zk5xlPs0Gt2pn1vjZITlv4vCSKRJv0LN18ftN6GkTcq2K1/nP/Lrw8xjlcvr5D37gXG7POR1srpdYHw+zI/P9LoBJKNwg4oRxqJl9TDspzlL8qvxOjJrv8TK61qNcjPJzT/2w3x9WT5mTD4BrY5iTdOZiT4lC02dM0i8Sx/aYuC5u2RhqsjSvbvPV57I9NOpWJT7ruJGiGwdXOXxRckt5ekj96lU26Za2o53yS3ti2NTH9ont0kympbtT0bVsudnn9KS87aog5DiLD0+7ROPWX6G52OSLOTOHX/6VTVPhnZ+cwuQNVE6cpmkUxa2/2DUvimu8l89NTdR+2CyRjhrp0V/NulX9V8fxT6oHeNzeX3U8Fjl8jp5336wql0e4Dpp1C41zked4zO4bqhl5B/aqKJRPTIG/bROfitfRzXaL3tGoc+UXHtXlqvKjmH1KPs6LCmlzALG5MssD0q+PDjPNB0RPVFTF/bgAq3fI/SXre8iIqKfVi5IJKKfwMyHXbEAWrzyku8q1XcQEdFPh0EiERERERUUb1whIiIiop8eg0QiIiIiKmCQSEREREQFDBKJiIiIqIBBIhEREREV1AgSY7jHVvE3GgtM0xH9OB7st6GJiIieKOOvwAmvLewigFzx82Om6Yh+BPGNjebHEfDK45fHExHRT8UsSJy6sAZA8HbF72aapiuz5At+AQCvk8DTP7dw+DXZJH6PMHzTSH9TchcXWdpXHuRfe/DPm/O0RU5ynJXlCnh/D3O/NzoPGJakSUZSm4tjybxy4P3ZXyM/enRTF/bsKO1rREREPweDIDEJwHAg0Vd+AL3INN0SMx/2PxP0tCDTP7cw+W2Rb3xjo/MFGCH/04DxjY3mXS8ZxZz5sP8Fhtn+qQtrur/Y92kLw2y0M017+Vd3/iPl8dRFcwBEb/vFH1afurD+24H38hCT7ZL66mXP8xuXB4Gr8qNHFV5beM/zQkREP5mVaxLD611cvA5WvkGaplvqboLR631tFDLE5KuDfSXf6A44+PMSztcBfGWtWHQ3grOdPvtugtHLrfm+cHox3xd+OkQrS6ekVYPBxvY+HOXvhRDu4ALOb13s/SIwnsV6gkLZANDY7iN4PcJgqqc3yA9I0p1bsI4t2DdVaVaLb2xYxzbcGxf2cZKfdWzBvg5z6fxCWSHcLH2aNrxO/z6307xsuDf+4ji1POOpCzvdlzxsuCV1SY4x2e/PQrjn6d/nLrQcEV5nZVfnZ0wtKytvBtx+E9j5ZZHMtB4rTd1FPaeLdlPLVpmXG8O/VuqRPor9xjydWTvHCHP9yq5Ym2xaLhERPSq5zMSReOfISN+uM023QvRJSPEpySW4gnQmegoppYyk886RgZZeykh6Z0J6d1pyKVfsS/JRy4ruAumc5bdlgitIXAXJHxNn8X9F/riWbzfJT0op5V0gxTtIvKuuh6ngClJcBYvzdRdIpyTf4KpsW/68FI7/nSODOynlnSdFep6yfeIs3aeaONIpaavk+Ul9nUmyP9d+6TnyJpFSj+Q8621sJD0+Ly1LSimjiSPFmZBC7dt167FSIJ13kDjzZKTkGU2cZFu2oUa53pmQzielXWQkvbPi68koXY129s4gxZVSjztPijMvl0aalktERI+ueiRx5sMejOH9XTLdqjJNZ+DDlxFGH5uwji3sfs6PHs7NPmD8agdtAI3tA+DjKeJ0+wAH2NOncpV9hWne1IcvI1wMFiManU+32P9zWBwVnbrY/ewgyqapf9mB+HarJQI+fAEOtoutEd2N0HqhbDfMDwDwoo3hWwn5tmS6upYY7795uPyjvThfL9rYf51PBYR4/7mFLa0sfVTt9puA97/k+OPZGOL3I7Sz56TnCQjh/gf0/uov9mV+2cH4ywdtYzaqHCB6O0Q/bcvGm+F8XaD/73vs/zVEd7uh1KOB7p8HQFl+y8x82P/t4PKvPrrKeWts93H5KzB6vZ+WsUY9Vpm+x8UrD9FfXTSUPBvbR/AwwIcZ1i93PirdQPevJdPlS9LVaefuXxLDP5R6lIyo5ywpl4iIHl9FkBjD//cQ+P1yRUBims5EMq0cvZWQf3sQhWnn1N0E+HUv+f+LLg5eXeB0Wj5lnImng8VzCpRy30pEvwuMPk+AQn1iuIMLABdoZlNk/xxi9HWiTYGGmHwtBldAjPe5wNc0vw2bfcC40E4x3n9r5QPs2e08GF8IMVED8ZmfC8zVIDjX5tP3uPh6gV1tenFe5zQ7VTwbw9lWAlnVzMfgZXX/WBqYlIinA7R+W6xH1Ylfmsl/1qjHKvFsDKe07AaAtB/VLLf71xBHLyJE01O41zbs8/Jp35XparRzPPXzU/XHFqzBYomHamW5RET0NOhDizKd1stNdVUwTWekYqpVn6LVpzuz5+lTxqrCc1R3nhRaubkp1CXbZDp1lpuSTacJdfrz9b8zhfw2beIUpgnLpgX1dpey5Bzl/o6kd7aYXs61eVmZKyxth5Jzlli+rKBKaV2TPflp0DXqsYp3hvI81Treu9xAOkbLQbR0hu2cXAccGdypJeT7w3Kmx0dERN9TcSRx5qPzEfD+LBvdUJimMxTPxosRG0V+6jYuTHdi+wjO5xN0viC/fS7URvDy4ukA0Mpt/8+D+Px+MaI383Hy2UFQ8t2PWy9HmNwt/o5nYwh11HKWLNLf/eYtppVr5JcIS24kWU84vchPeUMbnU1Fd+r4VJyMFP13kTtHuXM2+4ABspHHGLfflDbf3kfr7kOyLEARpzeKqDcfJbQRS92LPbS+ncBVbgJK8upg8Gv9Ue3GixZGH0+VG0XSGzDOOxioN03VrscqISZfUV72vxP0sv5hXG4I91g/jhjh9QnG8ynzGulqtLPzWx/tbBR5FsK/7uBw3h8yhuUSEdGToH0FTgz/vInBr9n3D1YxTWdC+47DgorvM0y/NxHIvm+wlfu6muJ3EGKRV5JC+z5DdV9yd+/hVwHnNXDxeZHP/LsZpy6sgfLsA4n9qYXdz/NNKQHn9x76b9RjNctvvkZrFsL+ZxcjCHgHQ3QrAt7l8vXN8lePJ1fm1Ic9yNpbQLw+QOvbIS6+Jul2/tO+r/LFaXL8rzzIP5GeK+V7H2cx/E8dDD6P5nk6v/dw9EaZUtbaYCF/boCkTdx/d3GRfQ/mKwfeb0e5NYV1xFMXncHFvH+J1wEu/3eLzjr1MJV+LVP0y3t0PmZlC4jXvfyaURiWO3Vh/zfG6KvS718JOL8u+l+tdDBt5+R6MP9O0lcCAkjyV7+EvE65RET06HJBYnxjo/kl/92DZUzTEVG1+MZGB5cb+KBFRES0eQZfpk1ED8E/t4E/73u3OhER0cNgkEj0vRWm1flzjERE9PQwSCQiIiKiguLdzURERET002OQSEREREQFDBKJiIiIqIBBIhEREREV1AgSY7jHlsFvrJqm+zHEtX9Fgx4SzwfR/fF1VI7tQpRnHCSG101cvA4Wv8hRwTTd95X8NJ59M/+hvZXiGxvWsYXmv76+ix4Bz8dDCuEeu4ufoaRn66FfR1n+1vlm8l83v/DagnVt3qMful3y+HqjzZq/TtZ4raxiFiROXexW/NZwjmm6JeKpCzv9nWLr2IJ97cNf63dxUzMf9vkp8L8hhjV++qvxZgh54OR/h/mxTN1FB1Af567ym7/P25M6H8/N7BbjV/rvLK9p5sPe8EWKNuehX0dZ/ni5pe9ay3r5xXj/GbnfmV/lodslx+T1xtfR07Lp87Hh/BpvhpBvJaLfxcb7sEGQGMIdXMA50H47t8A0XbX4xkbnvx30/pSQb5PH5fYEAxys/0XDL7oY/tVf6/nh9AKtF0/gJ9O2+5B/exCvvHm7yLcSwa9j7H6XT75Pw5M5H89RrTfhavF0AGz4IkWb9dCvo3B6AWd73XeBovr5NdB/K2v/3OVDt0vOitcbX0dPy6bPx6bzy0R3o4334ZVBYni9azR9bJpumQ9fWuj91UVbCega230MC78RHSO8cWHPR9Xs8jWQuRG4JcP7sxDuuTpcm4zQ3X4T2PlFTWhYLpAEzemIqH0T6ztrK+tU7Tc9OF8n83othpxt+GqdzvN110drrWMbbsUxFtKeu3ALI7sxwms73y4V+Rl5kPNhxri+BuWanI8kjQ03l58Fu2SqrHBs923nzN0EI31bXelrrflxhNHHpnKM+f6fmxZJ66huK2vHe5tfB2z4U3/+upyfC2003uS8oeb5KKSt6lc//OsoTvNPlvjkytZT6m1SWl/z/JJp3EV+lXV4lHZRLHu98XVU0Q8ShbQP/ToyPB8Jg3Lr5ler/2WvFX37PcllJo7EO0dG+nadaboVok+OFGeO9CaRjO70vQveGaS48hZp7jwpzjwtleLOk+Iq0LcmJosyM9HEkeJMSKHVqVa5d4EU7yDxTkhvSV1MBVeQzkTbWFb+nTcv10nrFH0SUnxKa5LWN9CPaeJIJ0sjpZQykt6VkM6nQDkXkQyuIPHOkfPWvAukcyaSczbfFknvTCmzjoc6HysZ1rduuavOR3puxVWgtF8gHb3fGJ83A/NjKn+sdd6kTNrwbHV/D65E7vWYnF/v3teP5QLpvIPEmXLe0rJRVvaq82Z8Pgz71XN5Hd15UrwTJWUnec63mLafaX45kXS01+zcY7RL7dcbX0eFfvBYryMpzc5HrXIN8lun/63av6bqIDF9ca6qiHG6Ou4iGU0C6V2JpJH0/bqJI1EVBOqdUpU2askeGX0SS/OUcnW5mxNJ7yx/0YsmTtLueuCYHlNZnaQMpKPlM6d1sOiTKAalsphOP665dTrsI54P0/qWWlbu0vMhpZSRdErqHFyprynz87aOfFn3sOT86YIrSFx5yRtd2Wtz06rexKou2EvPm/n5MO1Xz+V1JNMBg7JnL9rZvP3M8tPoeWjbH6VdFCtfb0uOU8fX0QO+jjIG56NWuQb5lVrV/1btX1NFkBglUezKTmeabn16x4smnnTOROHTWGkHSpWOwi3reOk+tV7rlLsxd8VPoqWfvlbUKbngFj/Jzh/zzlwMSkvdLR+hrdthlx37w54Pw/quUe6yOklZ1YaRdM6UUQ3j87aOoHrUpa5a5zwdkTBOfz/LzkPZuV+W3vx8GPar0j6QqtWmiWXH/rCvo3RUvPT9QOnTxu1nmJ9u4pQ+5zHbZcHg9VbrnPN1NLfh19HcqufWLbdsm2ad/re0re+hNEiMPomKTwt5pulWKou2pSy8oJLyHBncqSWu6kDVUw/6hUHZI72zxQlZr9wNMuhUGT2ozqm4eBYF0ik9H1LKu2ARnFa+OCo+Va7weOfDrL7rlLuyHcrOif56KEuzKZXnsL7qN3RNNjVTOR2zeZUfZivqv/S8GZ8Ps35VdQw/3usoaeeyN6rcMRm3n2F+mmWDAuXPefh2mas81wt8Heke53WUWXk+apa7Kr91+19ZWZtQvHFl5qPzEfD+7GLpPTKm6UzcTTD6egh3qizMnYVwz3cx/v0od7e081sf7fTunXgWwr/u4BBLvk5g9qHy6wYaL1oYfTxVFtymC0XPOxh8dbCv3IRTr9wQ/iZvWpmNDb/OIcQEB9irupN7ex+tuw/Qjyhpa3Xxbxs7GMBXzgdmadv8+36x7cUeWt9OSs5bB4NfL2vfUf5w52MVw/rWLnfF+ai6o/Jukr9Jyfi81RdPB4BR31rt9ptQ6hIjnvqw9eObhXD/PcHOn0N0XzTQ/esSB1+aS14ni5sRli/aXibE5CvK+9a/E/QKX9m14rwZnw/DfvVsXkdJO1/8p9zEMEsW83fueou7jY3bzzC/nOrF+4/XLgsmrze+jvR+8Divo8zK81Gz3JX5rdX/Qky+trC1Zh2XsaSUcvFnDP+8icGvUcULMGOazkx8Y+MUPeDLLi6+phtfOfB+O0J3W80/KfdwnkZAABh9HQGvPMjsLuipC2twoTxP8TqAVDpzPHXRGVzM7zYTrwNc/u8WnX8OMYKA9/cQ3ReG5WZmIex/dpPnHwzRXfuO7xDu8S7yNXEQve3nA/PK+joI3mpfSTSL4X/qYPB5lNZZwPm9h6M3bS3Yj5OO+XneMnAOLtHPnY/sYrXqvJl7kPNhxKS+huUanY8Y7nFzfm6dA4n+dvJaaH5MjiHbBtQ5b4+neO489P6XflvBzIf9z+H82JPzmO/f4vfi9SRrj7J9xqYurOk+ol/eo/MxOz4B8bqHyz+U9jM6bynj82HSr37819G837724GFgUN/l7Vcrv1zf0uWvl9+7XdZRPEa+jh7rdYRV5yNTo9zV+Rn2v8p2xkb7aS5IjG9sNL8crMzcNB09A1MX9nQfw8KnRKIHlr0hvvIQ/bX+jEV8Y6ODy/XfHDeBryN6LHwd0T3kppsbb4ZGgZ9pOvqxxbMY2O7j4NvJvaY0idYRfjrECA6Ce7yxAcCHL8BBySf674WvI3pMfB3RfRTXJBKlomkH1rGFwcteYV0F0cMK8f4z7vULTtkX1x5+HeHwn+TLaB/jzYWvI3o8fB3R/WhrEomIiIiIOJJIRERERCUYJBIRERFRAYNEIiIiIipgkEhEREREBTWCxBiu0be1m6YjIiIioqfK+O7m8NrCLvK/VlLGNB0RERERPV1mI4lTF7ufHQSrAj/TdBXiGxtW+vuSyWMD38c082Gf+/pWIiIiIlrCYCQx+V1IqL8jW8o0nYGpC+u/HXgvDzHZvl9+T+KnhIiIiIh+MCtHEsPrXVy8DlYGaqbpVgvhDi7g/NbF3i8C41mc2+ufJ6OM9k22PYSbjTxeh4uE6bfENz+OMPrYzI1QLp6biRFe27CVEUy3kEYd6bThz0K45+nf5y6UkmsK4RbqRERERPS4lo8kTl1YAyB621/+m4+m6Qzk1jROXVjT/cL6xvDaxu3/hrmf5gmvLbwvjDrG8M87wJ/5tDmzEO6/J9j57RJ7243k+Gcx/H87GPxaMgKZ/Vg6BJyDS/S3G/cbrZyFsP/ZxQgC3t9LjpOIiIjoO6oeSZz5sAdjeH+vCPxM05lI1zRGWVD4yw7Et1stUYj3n1vY0oKp228CO7/kt2H2AQMcYG9J4OX/+x77fw3RzQJEAHjRQPfPA+DLh3xiALibYPQ6QPR2iH76Y+eNN8P1AkQAeNHG8K2EfMsAkYiIiJ6OiiAxhv/vIfD75YrAxTSdiRju4ALABZrZtO8/hxh9neSncme3GL/a0X6sPMSkLBi8m2D0cqs6eJ35GLzcL//h8/S5ung2hrPdrs6TiIiI6BkoDRLjmw4O4eFyxeiYaToT4XUTF68DyLcy9/BejXGr3OEcTwfAr3vqU4Hpe1yUBIPh9ALil6a21UQM/78xvP8Vw8cPX1AcsSQiIiJ6ZopB4sxH5yPg/dktBF05pulMzHycVHx1ztbLESZ3i7+ju5GyN0Y89eH+Vx4M3n4TaL3Iji5Ja58rX6vzYg+tbydwp4sbRuJZCPc8WY9YHB2tGLFcW1hyIw4RERHR49NuXInhnzcx+DVascbONN1q8Y2N5sdF4Cd+T/OcurAGF/PtTvbVOlMf9uAQyTMExOsDtL4d4uKrkiYVT110BhdpWkC89tD7XxdtNcibhXD/3cXF1/TvVw68347QTdcbAtmNOYtjWXAQvO2XT1ebUG9aORiie+87w4mIiIg2Ixckxjc2ml8OIP/q5lNpTNMRERER0Y9p+VfgEBEREdFPqbgmkYiIiIh+egwSiYiIiKiAQSIRERERFTBIJCIiIqICBolEREREVMAgkYiIiIgKagSJMdxjC+5U364zTUdPy2Odt8cql4iIiJYxDhKz31ZWf9GkjGk6qiuGf23DOk5+xs86dxHqSYAa6fKqz1uMUMnPvi7PLb5RypyX7evJCpaVa1YPs+MzzW/dehARET070sTEkXjnyEDfrjNNVyqSzjtI6I8zR3p3etoa7jwpzjx96w8mkM6ZkM4kmm+JPjkSV3pLB9I5c2Rwt0gnJ2XpNJXnLZLeGSSuApnlGFxBik9K/vPtov55qizXtL6mx2ea35r1ICIieoYMRhJDuIMLOAerfqPYNF2VBvp/exCvPMi3cv6IfgMO/7Hhz/T0ZuLpAPh1T9/8Q4lvToDfhugrvyfd2N6B+HZbkq6P9gvld6d/2YFQExVUn7f4poNDeJB/tJHl2P6fB9xFWsoQ7z+3sKf+JvZKy8o1ra/Z8Znmt149iIiInqeVQWJ4vVsxHZhnmm6puwlGL7dymxrbfQSvRxhMY2VrjPDGhT2fErSLa9qmLqxjC82PI4w+NnPTh/aNmhfM8qsthHteVV49jTfDQrtWBb/jmVLWLIb/7wCtbT0MW6g+bzE+fAG8P0t+n1sPrma3GGOMjtJ+q4L66nJN62t+fGb5rVcPIiKi52p5kDh1sfvZQfRHdZAB1Ei3QjwbQ/zS1Dej+Ut+LMw/b+LkbgeXf6cjjn8fYPyftm5suw/5NoL3SsDL0qWP4RtlpM00v7pmwPgrAAgcKCNYmxDfuDh9cVmoR+PNJQ6+KAHxv6fAb5eFAGlu2XmbfcAAB+jqo2olgTzuJhi9aqGXtd9BC4f/+qgMjZeVW6K0vnWOT1OaH9aoBxER0XOmzz/P3XlSvDNYn2WazoB3Vp5PcAXpTPStiqp1d+l6RH2F2kpV+T26SHpXjgxK2khKKYNPngyUdXdy4kmnsD4vteq8TZyStX0G50LKZA1g6VpDg3JzltR3reNbkl+pJfUgIiJ65ipGEmP4/x4Cv18WR2pyTNOZCDH52sJWIZ8Y7z872E9Hw+KpD/dcuwN1cAGnbEo1HVVaNo5XK7/HNAvhXn/A3h99tAttlIyOvX/RRVsdtdzeAr58KBkJW33e4tkYLXVtY7IV7z8L7PyibS7zagfFMeHV5c6tqm/d41uRX6XSehARET1/pUFidkPApT4dpzFNZ2T6Hhevdgo3MSRfkbKPNpKvJ2n+N8H+n5fK9HEE79UiiMw9d3pROn2dqZvfY4mnLtxpE/0/upUB74cv42JwNLvFGCg8x/S85dY3ps+7eN3LBXjFADQ5l+Nf99Yu16S+MDw+GOZXpx5EREQ/g2KQOPPR+ZjcELD0zdE0naF4NoZQbySYJd9rt/vNy61dc5S7d+NZCP+6g0MUg0sAuP0mlNGmGPHUh32evxmhTn7mQvgbuWklhn/t4sMvffSVwMo/L+a79RKY3C22xbMQ7r8DtH7TbuwwPG+N7QPg4ynCtK3CGxvNjy0E6jrCmY/OsQ1fvaloFsKd7hQDQaNyzetrdHym+dWpBxER0U/CklLKxZ8x/PMmBr9GxUX9OabpzITXFnY/61sFnN976L/R3vTPmzj8mv75SkAAGH0dAa88yL/yAVE8ddEZXGCU/i1ee+j9r6tMN9bLz9gshP3PLkYQ8A6G6K45KlneLgAg4P091EbM4iTA/ZzW9pWD4E99arXeeYtvXHQ+Ju0nXnu4/F8XDX2qdhbC/XcXF2kbitcBLpWvpEmYlVuvvquPr1Z+RvUgIiL6eeSCxPjGRvPLwcrgyDQdPS2Pdd4eq1wiIiJanzaSSERERERUtiaRiIiIiH56DBKJiIiIqIBBIhEREREVMEgkIiIiogIGiURERERUwCCRiIiIiApqBIkx3GML7lTfrjNNR8vEyq/CEBEREX1vxkFi8hvKAforfj3ENN1TE09d2McWrHMX/iz5AmjrOtSTPbj4xoZ1bKH5r6/vehay+lnHFqzzH7eOT6W/EBERPRSzIHHqYvezo/0ubgnTdEvEUxd2+rvH1rEF+9qHr/3e8sbNfHQGQO9vieDlGIf/WGh+0X8H+PtovBlCHjj537HeqGSkdx6ozQO2JNh5aI03Q8i3EtHv4gHr+MCeUH8hIiJ6KAa/uBLCPd4FDuSK0UHTdNXiGxudLwfo/bn4feV46qLz3w6GP9FPuoXXFt5vr9+OK8182P8i16bx1EVzMC7+pvEDefA6EhER0b2sHEkMr3eNpo9N0y3z4UsLvb8WASIANLb7hQBRH220jm24N3EuTaaQ9tyFWxiZjBHepNOHWX6laypjhNd2Pl1FuUZmIdxzdfrVRTgDbr8J7PyySFaow33LvZtg9HIrt6mx3UfweoTBdJFvnXILaUvbORMX6phndj4WU9c2fLUtz13kJ37N8oNxPcz6QSGvinRADP9a6Qfpwy5NS0RE9J3IZSaOxDtHRvp2nWm6FaJPjhRnjvQmkYzu9L2pSZIm0PdPHOl8Uo8gkt6VkM6nQMkrksEVJN45MlBSemeQ4spbpLvzpDjzlBRSyrtAOmciObb5tkh6Z0KKXLmG0np4k8Vzo4kjxZmQQm1L4/qaiz6VH3Nuu3G55u08V9a+CqPzkbnzpHgHiXdCOmlb6vUzy8+wHqb9wLj9pPTOhHQ+KfnJSHpnkM4kl4yIiOi7qg4S7zwp3gnp6W9yOtN0ddxFMpoE0rsSyZv7fEcgnTOzwCP6JMrfZEsDBM3EkbjKl+IZlmskfU4xTEuOe1G2eX3r8M7Kz1dwlQUm5uWu1c4l7bvUsvTpvrK2rFSSn2k9zPqBeftJNUi8q1ULIiKiB1WxJjGGf97E4NcIwzcNfafCNN36/HMb+DNdJzd1YQ0u9CQLrzzIv7rpcZ1i668+Vt1KEE99nP43wMXXUW67o66tnPmwP21hWHZjwtSFNd2HLNtXIb6xcfpiWDo1H9/Y6OAyaU/j+tYRwj1+j/23etvEcI9Pk+3G5Zq3s2pp/U3Oh2JZXjDOz7Aepv3AuP0W4mmIaPYe7+/GGH8DWr9V14mIiOi70KNGmY1mVYx0qUzTrVQyupIIpKNO9U2c0mnSokA6pfkl04XZFGBy/I4MciM4UXG06M6TonQkK5lmLBuVW0afDlX25KcZjetbw8SRKGmb4AqL0TXjcs3aWVfVZsbnQ1GVl6yVn2E9TPuBcftVSfr9fXIgIiK6r+KNKzMfnY+A92cXS8cGTdOZuJtg9PUQrnrTxCyEe76L8e9Hi9Gd7X207j5AX86fpFVvLmhjBwP4Sn6YpTcv/Pt+sQ2A81sf7RdJDeJZCP+6g0Ps5EeUXuyh9e2k5Pg6GPx6Wftu4MaLFkYfTxHOjzc9tvMOBl8d7GcjSMb1NRfPxvmvnpklN03sfvMQZSNkxuWat/NCiMnXFrYq2szofMyFmOAAexV5wTg/w3qY9gPj9gvhHuvnMUZ4fYLx6/37v66IiIjuQZtuNp0+Nk1nJr6xcYoe8GUXF1/Tja8ceL8dobut5T+L4X/qYPB5hGQCUcD5vYejN23tTTVOAoLP2TSjgHNwiX4uv6Qeh/MyBQSA0ddRcUpwFsL91+D4DMVTF53BRVoHQLwOcPm/W3T+OcQIYvFVNMb1XS28trD7Wd+a5Nd/o4VhxuUatPOy6ddcOxuej8r8HAS5aXTD/LK0q+qBGv3ApP2mLuz/xsnxZF4JOL+WnA8iIqLvLBckxjc2ml8OCuuldKbpnoSpC3u6X76OjEjH/kJERAToQeJzE89iNF408je/EFVgfyEiIloorkl8RqJpB9axhcHLHt/waSX2FyIiooVnPZJIREREROt51iOJRERERLQeBolEREREVMAgkYiIiIgKGCQSERERUQGDRCIiIiIqYJBIRERERAUMEomIiIiogEEiERERERXMg8TYByxr8XBDADFgK9ssN0sM+G5+n+0C8SLfRJjPLw4XzylNT0RERERPQuEXV1wL2JdAW9nm28CkB/SVjXEMNBqLv0MX2B0DcrjYpu8DAK8HdNtJwIg2oGRBRERERE9EIUiMfaADYNjNNgB2BxiWBH85S9KFLnCyo+RJRERERE9aYU1iowu0DoEw/Ts8BVo9LVEMuHZ+etrqACMtmaq1pW8hIiIioqeqECQCwL4DnPhJMHgyBo7UuWcAbhNAD4gkILPHJSDyyYiIiIjoB1UaJLaPABwC/imAg/J1gzvNxfY4BtwVI4lERERE9OMorEnMhC6we5GMFupBYhwCnd1FUCgE0OsBJ+m2IL3xJcujQJTf4EJERERET0NlkEhEREREP6/S6WYiIiIi+rkxSCQiIiKiAgaJRERERFQwX5NoWfqu74MrIomIiIieHt64QkREREQFnG4mIiIiogIGiURERERUwCDxkd3YFs79WN/8ZDz14yMiIqKHwSCRiIiIiAp448pzEfs47wB/Dbv6HiIiIqLaOJJIRERERAXzIDF0LViWBduPEfsubCv527JsuCVr0kLXTvenz7NdhMVkQOzDtRfpLNuFa1tww82lKxxeHMJ37VwdbDeEngwoz6+0XAAIs3apqKuxENeWheP0UbrmL3TT/S6mcYhrO0tv4zp3bDFubAvHzUN8HR3O8zy2LBzbvpoQADB17Vyac9vFtFC8wfFBPUYL1yEwC12cZ89xfczUtLGv1MHCse3ipiJbIiIiegKkIvKEFEJI4QQyUrYHnpDCW2yJvDSNkigKPCmEI4PFJillJB0I6QRqwkg6AtLJJTRMFzhSCC93bFJGMnBEIT/12KSUMnAgIbz8RtNyM4EjBSABR6pPuY87T8gzpW3zAnkFId9ByE9pgXeBJ88g5ER/SuTJs0L98u48Ic+cQN4pz70LPHkmHDlREyqWH19i4kC+E0K+E45ynIG8yxIEjjwT3uJvKaWUkZw4Ql6VtTMRERE9usJ086jVw7DfRkPZ1u5eonV4imQAK8TpYQu9fhsNJVGj3cWwB+zmhuAiAMCOsgWNBvpDiX5b3WiWzj8Z4+Cymzs2oIH20QHGJ+qoWSN3bADQPvIg8puMy51r9zGUElL20dbyfzgjvA6GeJMW+KLdxa8C+VE6IyE+HbbwW7+NF8qxv2h38VcPGJQOnZp7ddDD22FfOc42XqT7bk7G+PWyO/870cD20QG+5c4bERERPRWFIFHsNPVNABrYEWPcxgDiW4xxgV1lqnn+2L0AxrfK89roBy0MdpvKdG7Z9LVJuhCTUQtbZcFZYwut0SQNYpPpZtfOT4dbnQFG+WcZlvvYHGyXBax1xbf4hgsM1Ono7FE4b/W93Ko6yBB3o1YuMJ1rbOHlaIKpvp2IiIgeXSFIHE2S0bW8eBGgNfbQgoNASsiyh3537Xz0TULKCNFlDxg0i2v+VqZrLwJVXXyLsdhBEqbEcJsnQO8SkXpclwclI4km5T4TjT28hIMDKfG27KGft41p4xcxxqzivH0TO9jWtxMREdGjKwSJYnxSuMkj9DsYe0dpENZAPwBObB9x7o0/RujbsJToKvZtWK6aroEGmvnp3Rrpur0WBh2t3DiG3xmg1cuCnHQKudmYT0vHcQi3c1gYSTQtd25jN648kNFkcRNKdrPL/Hw08EcA/Gf7WsAWY+rbSrrNe9Nr4UtHKzeOcdMZ4OX8vBEREdFTUggScXCJy/336Mynam28xyWGXWW+sN3HZQ847ajTzR28Rw9SW8wnoKVrdjA5iApr/ozStfsYXmrpOqfA5VBJ18ZR0MKguUjT6bzHfs+DGB0mAZ6SpVG5GzbzF3cY/3M4wtfD5mLqNwvWQhfH1i4+4wIDy07vBE7uOv44GuFjU7vruNHFnx7wXzPNp3kCHAR4q1ak3cefPeBTR51u7mCKXi6d0fEBmLrJtsEF8HlXvXNZW2fY7uOvS63c9Lz98YDtTEREROvLfZl27Nvo6AEhEREREf10iiOJRERERPTTm48khq6F3QtljxMUpo6JiIiI6OfA324mIiIiogIGid/ZsWXpmwjAW3ZDIiKiJ4VBIhEREREV8MYVIiIiIipgkEhEREREBQwSiYiIiKjguweJvp38somt/loIPTHJL7tkv46S+2UXIiIi+imsHyTGPmz959cMdIcSkSf0zUAcwk0DSMuyYNkuwjiEq/2MHn0PbfwhJd5Kib/LzhURERE9e+sHiZsU+rBPgaPLCFLK5HF5hNvOLtTv9yYiIiKi76MQJMahC3s+omfD9WPEvp387YYA4mTKuHmI0ehwMfJnWbBKRhZj34U9T5Pkp6WAfzLAwVEbjYbym9GNBrrDAE4uaQjftXP52W4IPUeE7vyY3DCtU/q37fpJ+nmadMRSrXPJ0GXopm2Q5WO7CAsFp+blLUljInTnU77XITALXZxnU8Cuj5mSdOra87THloVz28VULzsOcePa8zyOLRvnbpjLh4iIiAgAIBWRJ6TwAnWLDDxHCiGk8CJlu5Qy8qQQXn6bJvKEFE4gF8+MZOAJKYBFfmk+Wu4VIhlpCQMHEhXHkewTEsKRXpA8MQrU4wmkAyEBoez3pICQ6Z/Jtqwe6rbAk0I4Um2tucCRApCAk8tnXRMH8p0Q8p1w5Kc0w7sgkHfp/jtPyDMnkHdKWXeBJ8+EIyeLTVLKKJdGzvMubz+Z5a2feyIiInr2lJHEGKeHLfS66u81N9Du9tFrjZRtpsIkv34bi/HBBtrdIXq54cFsj4kG1MFGAGgfeVi2ak4c9CCHfXTbyRMbbfV4AGAEJxgq+7s4EMDtfL9SD3Wgs93FsAfslg07tvsYSgkp+0izvbdXBz28HfbxJs3wRbuNFwCAEJ8OW/it38YLpawX7S7+6gGD3PE1cmkAYPvIw6v8JiIiIiJlujn+gLHYgRoiZpo7y8KwCvGteX6jidnNKXEI185P+1qdAZaFsK2tsiNQOdhfliS+xRgX2FXLzB67F8B4EU4+pJdV9Yhv8Q0XGChTzfOHfnxxiGs7Py193Bngq5ofERERUS5IbOyhVRGsRZNlYViFxpZZfo0uDsQF3pclzInhNk+A3iWi7OYWKSEvD5aOJN5bYw8tOAjUMtXHsKs/4/tq7OElHBykdyMXHvPji3Gdtt/f6v7LA44kEhERUYEy3dzAkTfGia9GazFC38XJuCIMG00WN2ZkN3/MpzfbSX65G0tihL6NE+2W5e4wAE5s+Lm7PJKybTv7CpwIALDTbMyni+M4hNs5XDqSeH8N9APgxPYR524ESeqyqK9iUzeuGGngjwD4z/Yx045v6ts4nh9f0n6/NBvpNDUwi0Ncdw45kkhERERF+iLFKHCkEJAAJCCk40XpDS3FmxciL7tBI0tbvI2jmCbJD4CEo6SPIuk56fb0IZz8DS3R/IaQdL9wZBB4i5tE0nSBs0iTe6g3aASOsk/IpHqBdNT8lTpHgSedebskzymrr5Sbu3Fl4kC+Q8mj5EaTu8CTV0JNJ+SVdnx3gSPPlHzOhCMngZduW9zkcueJYpnZQz1nRERE9GxZUkqpB4662LfRwSWG3Q3dhUFERERET1rhexKJiIiIiJaOJIauhV11/aATQPYr7rIlIiIiomdjaZBIRERERD8nBolP1LFl6ZuelLfsNkRERM8ag0QiIiIiKuCNK0RERERUwCCRiIiIiAoYJKZ824LtP/jPoxARERH9EL57kOjbFizr4QKy0H3Y/DMPXY8fQ4hry8Jx+jj/qduCiIjoeVk/SIx92Lavb12pO5SIPOW3oGM//Z1j/WHDXeOHj9t9LX9D3aGs9YsyhXr8lNr4Q0q8lRJ///RtQURE9LysHyRuSqOLoQzgwEEgJWT6iIIDjHc74OAUERER0fdXCBLj0IWdTqValg3XjxH7dvK3GwKIk6nW5iFGo8P86F/JyGLsu8pIYZKfiUa7i54zwiTKbw/d9FjSh227qBpwjMNVZYdw1bwK+xeM6hGH8F07l852Q5SkTMyPr7oORkJ3PuV7HQKz0MV5NgXs+pgpSaeuPU97bFk4t11M9bLjEDeuPc/j2LJx7oa5fIiIiOh5ywWJsW+jc7uP4TAb0bvEPk7RGQDCi9Kf5GugO5SQkQchvPnIn5QScthVs0vym+zjcp7mEvvooHM4yqUrE4c+Ti4EdprKNt/GCXqIokWZl70dnHRchOqTAWDQQedkB5dZ2ugSO4OOFgi20c9GLpdMlxrXo9HE3tEQw3m6IXrYRbMkeN6odh9vpcSBA3w+sfHPCfBrEOGtlPhzf2uebObb+A89/B0lU8RvpcSfvR3813ExVfNrNLF9NMRfaZq3cojfsIt/HroeRERE9HTIuUg6cGSw2DAXOJDCi/IbI08K4eW35QQ18gukA0hoD+Gpz67OTwaOhLPYE3lCovTYqusYeaJYRymXllusR4mV7bQ5EwfyLNdmqkBewZETfbNM2u+d0n6lIk+eLanHnSfk2aq2ICIioh/GYiQx/oCx2EE7F0ImmjvVo2yV4tua+eXXJEoZoYcTWLafTNfGtxjjArvq9Hb22L0Axre53MTBXu7vRAM7YoxbfXp1mTr1iEO4dn463OoMsHrcdHNebpUdaVKPb7jAQJlqnj/09otDXNv5aenjzgBf1fyIiIjoWVsEiY09tEaT4rQtgGiyRpjT2Lpnfg20u0N4GOBDnB5fIZBUHtpU92jwIfd3IsRk1MKW+U3MNeoRw22eAL1LROpxXR6gLCT+7hp7eAkHB/MpZO0xb78Y12k9/lb3Xx7glZYlERERPV/KmsQGjrwxTnw1HIoR+i5OxhVhzmiyuOEiDuHa2c0tANBO8svduBEj9G2cXMw3LBWHLg7nQV0D/QA4sX3EuZHAJM9FuQmBAWw1bRzDt08w9o5KRwWrmdYjucNmp9lAFoPGcQi3c1g9kripG1eMNPBHAPxn+5hp7Tf1bRzP2y+pxy/NBl6kW2ZxiOvOIUcSiYiIfib6/HMUOFKIbF2gkI4XVa7XizxHivkaQiGdkvVwxTRJfgCSdYSRp+zXHsKRerFR4ElnfnzFcgMnW88YlZadyys7jrKHtkavLK9cPbK2U/IQwpFBkNWvZF3jPL0jg2LzGps4kO9Q8ihZQ3gXePJKqOmEvNLO213gyDMlnzPhyEngpdsW6xrvPFEsM3usWuNIRERET5olpZR64KiLfRsdXNb6smkiIiIi+nEVvieRiIiIiGjpSGLoWthV1905QfpdiURERET0nC0NEomIiIjo58Qg8Qd3bFn6piflLbsXERHRD4lBIhEREREV8MYVIiIiIipgkEhEREREBQwSaSNubAvn/oP/bMzanvrxERERPTXfPUj0bQuWZcF+oDfs0H3Y/ImIiIh+BusHibEP2/b1rSt1hxKRV/Jb0NlvP1vpw3bhu3btYK/dr8ifHtSbocRfm/hFntjH+Rr9apWNHR8REdFPYv0gcaNCuJ0T7FxKSJk8oh4wuBjpCYmIiIjoOygEiXHowp6P6Nlw/Rixbyd/uyGAOJkybh5iNDpcjPxZFqySEaDYd2HP0yT5FYTvcYEDqAM9jXYfl2UjgrFfHHEsyRJZXZaVHbrzfNwwn952faipQzdtg2y/7SLMEmT5pKOfyfNDJT8b7jyxQX6qkvq6dnK8izRhMuqq1NV2w9zx58yPq6JMYyGuLQvH6aN0zV/opvtdTOMQ13aW3sa1WgfEuLEtHDcP8XV0OM/z2LJwXNKvpq6dS3Nuu5gWijc4PqjHaOE6BGahi/PsOa6PmZo29pU6WDi2XdxUZEtERPRDk4rIE1J4gbpFBp4jhRBSeJGyXUoZeVIIL79NE3lCCieQi2dGMvCEFICWXyAdQDpepKQtEThSCE9LE8nAEdJRDjvyRHLMwpNRljiKpFdWDyll4EBCCAnhSC9I9kfB4rjn9VCeGgWeFMKR82IjL61XIKWMpCcgIRwZRMlxA069/JKt0oGQTnpMyaZIOgK5+koZ5fKS8zpVnJ/AkQKQQHp8G3DnCXlW0raJQF5ByHcQ8lNa4F3gyTMIOdGfEnnyrOq4U3eekGdOIO+U594FnjwTjpyoCRXLjy8xcSDfCSHfCUc5zkDeZQkCR54Jb/G3lFLKSE4cIa/yJ46IiOiHpwSJkXSgBymJwNGDujQoWvpmHtTML5CekwSQQBJgZQFbxhNC6k+TsngskScqAqTyOibHo2/NVNdDBo5EFq1px5CrY+RJMc/DML9kg3QgCu1gZOX52azlQVggr4BCIPVJCPlJf8rKIDGQV6gIBgNHvstHz3PLjy8xcSDPKvtBxfFKk2MmIiL68Symm+MPGIsdtHPjjInmTsm07yrxbb38Gm10+0MMszWJl/uYnDSVG1dCTEYtbJXde9DYQms0gTp7KQ72lL8yDeyIMW5LpgdbW2VHmtYDF9hVpobnj90LYHyrP2O5Wvm10Q9aGOw2lenmkmnzOIRr56evrc4AT2tFp4PtiiauJb7FN1xgoE5HZ49C+9X3sqofIMTdqIUXFf3v5WiCqb6diIjoB7YIEht7hUArE03WCDdKAreMnl/oamvsADQabfR7DkaTKN3SrgzwygLS0eCD8ldmSaBZpbGHFhwEafBaeAy7+jOWq5tfuz8PnKWMEF32gEFTaa8YbvME6F0iUvO5PEBJKP7ja+zhJRwcSIm3ZQ+9/TamjV/EGLOK/vdN7GBb305ERPQDU25caeDIG+PEz90RgdB3cTKuCDdGk8WND9lX2Myjl3aSX+4Gihihb+PkYr5h7mLXhp+7iyJG+P4Czv4i9Ov2Whh0fMS5ZDH8zgCtXj44EBjAtpW0cQzfPsHYOyod3azWQD8ATtS8gHldFvU1ZZ5f7NuwXDVdAw00sTNPAQBJEL3TbCCLfeM4hNs5rB5J3NiNKw9kNFnchJLd7DJvlwb+CID/bF8L2GJMfVtJt3lvei186WjlxjFuOgO81PofERHRD0+ff44CRwqRrguESG4m8cpv+Ii87AaILG1xPVcxTZIfgPn6u8CBdLxAOvNy07Rla/EiL59OOLl1ioGTbBdeVFq2KktbeJSsL4sCrVy1voGT2+5FSt5OML+pJdu3Mr+sTE9I4ZSly9cjmt+IkjyEcGQQZGWWrH/c0I0rd56Q74DyR7Y2MHCU7dmavmSNYrZdXyt45znyTHnOVUm/ugs8eSXUMovpjI4vu2FF3w/IdyX9QEZaucIpX6dIRET0g7OklFIPHHWxb6ODSwz5ZcREREREP4XC9yQSERERES0dSQxdC7vq+kEngOzXW9FHRERERD+epUEiEREREf2cGCTSWo4tS99EAN7y5URERM8Eg0QiIiIiKuCNK0RERERUwCCRiIiIiAoqg0TfBmxf37q+p54fERERES1UBolERERE9PPijStEREREVMCRRCIiIiIqKASJrgVY6aN0zV+42B/GgGsv/nZDPbFBfhktL8sCXB+w7XyytfOzAT/WExERERFRmUKQ2JeAlEDk6XtS7WS/A2C3Cez00vQBMN5NAkfVyvxSrpJX9tgHMNLSGeUXAnYHOBoq+Q2BrdPyQJaIiIiI8gpBYh1OAHTTn3JutIEDAdzqiQyELjD2Fnll2t0kuKvLPwEOLoGGtr19BIxPtI1EREREVHCvIHFfC+ruo7Wlb1nfZARs6REiADSA1gjgYCIRERHRcvcKEjdpvM4QZIUdAdyWrT+MgbEANhjbEhERET1LTyJIbB8BOAR8dYgvBkIfsNMbZOro9oBBB4jV58WA3wFaPWUbEREREZXKfU9i7APNw3yCOQeQ/fTu5t3FZi8Cuo3kruOLdJvwgGHXML9MDLgd4EK5U0U4wOUR0Einju+VnwC8y+RYiYiIiGg5fpk2ERERERU8ielmIiIiInpaGCQSERERUQGDRCIiIiIqmK9JtCx91/PGlZhERERE1XjjChEREREVcLqZiIiIiAoYJBIRERFRQY0gMYZ7bMGd6tt1pulomXimb6E62H5ERET3YxwkhtdNXLwO0N/W9+SZpntq4qkL+9iCde7CnwHxjQ3rWv2dwO8jvrFhHVto/uvru8gA24+IiGgzzILEqYvdzw6CP9r6njzTdEvEUxf2uQXrOHnY1z78cxv+Q44MzXx0BkDvb4ng5RiH/1hofmndqx7rarwZQh44EL/u6bs2axbCPU8CKisLjqc+7PMfO7j6bu1HRET0zBnc3RzCPd4FDuSK0UHTdNXiGxudLwfo/dlF+0W6beqi898Ohn919eTPVnht4f32+u24Snxjo/kR8A4u0d1Ofsw6nvroDA4xeh1APkJwvEkP3X5EREQ/g5UjieH1rtH0sWm6ZT58aaH31yJABIDGdr8QIOqjjdaxDfcmzqXJFNKeu3ALI5Mxwpt0ujnLr3RNZYzw2s6nqyjXSMloXjgDbr8J7PyySFaow33KnbpofmwheDucB4gA0Nju4vJ3AfFLU0m8vL7hdXbcWRob7o0PNz1WuzBdv7qdk+liG24uXVle5u23qh5qOv9ayS8ruzQtERHRMyeXmTgS7xwZ6dt1pulWiD45Upw50ptEMrrT96YmSZpA3z9xpPNJPYJIeldCOp8CJa9IBleQeOfIQEnpnUGKK2+R7s6T4sxTUkgp7wLpnInk2ObbIumdCSly5RpK6+FNFs+NJo4UZ0IKtS2N62smuBLS0/MqY1jf4AoSV2lrpv0guEvbcJ12TvMUV4FSbiCdd9pxm7afYT2klNI7E9L5pKSTkfTOIJ1JLhkREdFPoTpIvPOk0N+Yy5imq+MuktEkkN6VSIKK+Y5AOmf5wGNOCziiT6L8zb0iMMmZOIvAJ+UZlmskfU5ZiBd9EkrZ5vU1E0jHMJg3ra93tjj30Scl8DI5vpJ2ljKSTknb5IJb4/Yzr4dUg8S7spyJiIh+LhXTzTH8fw+B3y/RVaZ+i0zT1fSigcZ2G90/hjj4NsCHbGp4+h4XXy+wq00HWscWrH8OMZpnEOPDlxb2y6a+X3Rz09fx1M9PWR5bsAYXcLaVdXkzH4OX+yhdqXc3wejllr51qXg6QOu3LhaTvXnzKV/j+hqa3WL8er+y3DnT+s58DHCAvfTcR3cjtF5kaxwHgHLziFE7A8DsA8Yvt7RjjPH+W2tejnH7mdYj1f1riKMXEaLpKdxrG/Z5cTqciIjoZ1EaJMY3HRzCw+WbqrfhhGm6lWZVd9WGmHxtYUsJQMXvEeRbWf6YB38RJtgpDw5mIcI06IxvbDT/m2D/z0slnwjeK6c8wCyI4f83hve/0pKWGs/K1rnF+PBlEWjBuL41fH6PspLNaPVNA600LMTtt0W75QLGOu18NwFy6yLTwBE7uaDQtP3KVZ+3xnYb7Td99P8YYvhXDxi492gvIiKiH1cxSJz56HwEvD+rR2qAGulM3E0w+noId7p4O45nIdzzXYx/P1oEe9v7aN19KLxpJ2nVm1Ha2MEAvpIfZulNE/++X2wD4PzWRzsLZmYh/OsODvUA88UeWt9OSo6vg8Gv9UdRGy9aGH08nQer8xs6zjsYfFUCJ+P6GnrRRe/1BZrnvvJl0/F8lG9eP8P6xrOxMmr3AYN5u+UDRpi2M4BwelEM8u4muVFJ4/YzrEdyZ77enjHC6xOzkVciIqJnSPsKnBj+eRODXyMMl44OmqYzE9/YOEUP+LKLi6/pxlcOvN+OcnfgAkmw53/qYPB5lE63Cji/93D0pl2YovSvOzj8nE3KCjgHl+jn8kvqcTgvU0AAGH0dAa+8/EjdLIT7r8HxGYqnLjqDi/mUsXgd4PJ/t+j8c4gRBLy/h0kQY1xfUzHC6w525+0CiNceev/L31W+qr7+uTVvN/F7hOGLU1iDi6Td/gTsXD1M2jmGe9zERZrESb9KKfm6nuRYs22o1X7L6wEkd3zb/42T48m8EnB+7aH/Rg9jiYiIfg65IDG+sdH8crByGtM03ZMwdWFP9zH8wb/7j4iIiOh7Mvgy7R9XPIvReNGAf24Df6YjS0RERES0UnFN4jMSTTuwji0MXvYYIBIRERHV8KxHEomIiIhoPc96JJGIiIiI1sMgkYiIiIgKGCQSERERUQGDRCIiIiIqYJD4s7ItwNd/y4WIAL4+iIjAIPEeQhe2G+pbkzcXK32DCd3k/5arpyJ6WtR+S/Vtuv02nd/3Ynj9C10L9o9WN6KfEIPEtcRwd8c4OCr5FZdW+u9WA2juJP8X6b+Z+cWz5FESdz6IoQS66/2wHz1DQwl4Qt/686r7+th0+206v+/F5PoHoH3kAYen3+1yR0TrYZC4htjv4EIclL+H7AgAAmgCaGwl21rpv5l2H5AyeXgC8KLF3yVxJxHRD8Hk+gcAjS56zgVOOJpI9KQVgsTQPYdlHc8ftn2NsOx1HN/AtRfpLPsarn2MwgxsPIVrq3mew/WvYds3izTh9Xy/GwJxeA07K9+9gVr8quOL/fx+N0yONcvPso5hudM08RS+e67sO4ftTnPlFcX4MBhBHOzpOxQtoAEATUAA2GnqCVZTp2ricDGNY9nlo42xr6SxANtN/s6lDfOjllUXaHWkM9T+dv1FujgEXFvJ00axA9RUVo+Kw1zKtP389PhtpV7ZNstOys7yst1Ffd1QKcNG4UWSa5eKepi2MzbYLhlfHc22q/uCST3qiEPA1vqM7+bbHwb1rXt+s0eY5q1um/dZw9cHDNuvzuvDJD8YtMuydIXrQSrXlvrOdZhd/9r7DkaHp5spkogehlRE3pkUzkRGkbIt+CSFuJKBmlDeSQdn0gnuFpuiO+mId9LJJZxIB2fSU9PJOxl4ZxLik7ItETjvJMSZhLiaPycKJjI7nHrHp2+T0isc310uLzk/huKxzUWeFBDS0563Nk/I6swCKSGSR5CmCbzk79xTonwaKaWMIikFZKERMkvLTTmQUggphaOUr2YYaceRPcfTNhoKnJLnRlI6oroeSxm2X+SVlCuTui86XzLW6wXJMQkk7RKlxw1n8TxPSOkE+TICL0lfZlU7b7pdsuObi5JtQL5P1K3HSun5UPtpVrZaP+P6Gp5fGeXPT2bd14dp+5m+PkzzM26XmteDwEnnMdL+/L1s+lpKRBunBImT0sBKSillcCXhTJQNZcFfUeC8k8JbnkaVpFfLUdU5vjSgVMuOPkmxLPjLrEoXOBJwyo9jHcvejGSQXLz1wtTgRcqKN98VlpabcrKgqIaqgMtEoV6ptfM0bL+q/PUgUU3jKG/gkacEIUF5QCLTN+P8p5TEqnbWjzejH5ORJcen1mlZuqp6rJLLfwnj+hqeX1nS3wt5afT0c0vaxaR+hXJr5FdWL1mVZ83rwaMIpAOs1ZWI6PtYTDfHM4zxGbvqtGz22P0MjGfK+OM2+sFLDHb/WaSxz+H6appEa+uFvmmp1ta2vilR6/iARvc3tA4/zWdXwtOPaPXe5NIUp8KPYXW+YJRP9cgcg3WKbSBoAbtNZXppyZRVHVtLCi9MHVpAZ6CnMhQCo2yaStPYAkYTfashk/bboPgWwEW+TbLH7gUwvtWfkahs5w23S3xbeiMBkK0nS61bj1W2yiqiqltfw/Pb7QGHp4u/Tw+BXldNYca0/WD4+jDOr067POD1gIh+KosgsbGNFl4jkG8hyx5DLcBq/4HhfP/fiC5/Awb/FJbcjG+LgeNa6h4ftrHvfMaJPwPiG5yMf0f+ZuQZ3OZ/QO9PRGo+l79i6T2FzR0IjHH71K636s0wMgIue8CgWb4GaSNioHkC9C6VciVweaAnNNQGxLh8TdSyN9KnprGXBC5qm6iPYd3AZMPtUggoFBPl49HG65Fa+cLZcH3n2oBzkQRKsQ+MPbPgUmfafqavD+P8arbLd78erCG+xRiiaskiET0Byo0rL9APgBP7BnHuQjRD6J8vbvZAenOIq6Z7gQZ+gX75bh/9Dhz+Cz9UAsV4htC/hm2dF9b6L2d+fJmk/E/wTz8CB9vah/A7AMBO88V8exxP4XY+Lh9JbOzhQIww+FDr4B+Wbyc3OswPqZEsGn9QUfJPU2nVOAQ6h4u/6+q1gI5aDwBxnIy+rDPqU8dosCg3uxFiaUeo0gACJDdi5LpInJ6nNd6lN9oubcAba8eRHtuFsukh6nHkAYed/E0+cZzetJHeJIRN11eRfu0KTg+BpTeeLWPafqavD9P8arRL3evBxm9cMRRNMEILe2Wjo0T0NOjzz1HwSTrinQSyx5l0tHWCyQ0kZelK1h9GE+mIs1w64XzK3TASOGo+yqNkbaDJ8amSvK/Kl/IEV1Io5QlxJYPgU7qtYv2jlDLyhMSy9UyrzBeKlzyyQnNpsrVI6Rqs7JGtV/KElI6XLExXn6Ovj8oWw5c91IVBTsl+lCy41+shnPTGAVSvs1ol0uqR3RxSV532k1JKT0mf3UCSHYdQ2y3NK2sjJ1jc1KLeMBGUnQ+tR5m2s9xgu2TU+mZ9Jesfal8wqUcdUVBsT8cr1mVVfeue34yD6r5p+vqQhu1X5/Vhkp80aBdZ43qQeaQbVwIHUlQdExE9CZaUUuqBI60SwrVOsBMNy78rkYiIqsU+7OYEPdlfa9afiL4PBonrCl1Y7/ch+7zEERHVEboWTnYiDPkpm+hJY5BIRERERAWFX1whIiIiImKQSEREREQFDBKJiIiIqIBBIhEREREVMEgkIiIiooLvFiT69jHskt92JiIiIqKnRwsSp3CtY1jp44cI6kIX9jo/EfaTCl0Ltv89f3uLiIiIfkSV35MY++fo4E8Muy/0XU9IDNfq8JdP6uAvHRAREZGB7zbd/BBiv4MLccAAsY5GFz3nAiccTSQiIqIl1g4SQ/d8Pi1tWcew7WuEhbjDcPo6nsJ3z2HP057DdqcoZJcT48NgBHGwl9sauhYsK5lSjX0XtpX8bVk23JLAKHTtdH/6PNstqUcyAufai3SW7cK1LRRmuu+RrnB4cQjftXN1sN2wvF1K8istF0B738Ho8LQ8HyIiIqJ1g8TYP8cJfkMUvYWUyeOy9wtOOtfIxyTb6Kf7I+9Vbk9O4xfsHf2FYZpWyr/QwwBN+0ZPuRB/wGAkcLCXH0Zs9yUiTwCDDjqTfVxKCSklpBxiH53cerzYt3GCHqIoSyNx2dvBScfV6hHDbQ6AXjRPJy+PcilqpQtd2B3gaLgoVw6PsHVq54O6RhN7R0MMlTr0sIum7SuJYF5uprkDgTE+MEokIiKiCmsEiVOcHr5Er7+NhhKfNdpvMOwBu+5UTWzoRS4vAGgf/Q6R35QXTTBCC1sVU82jVg/Dfhvq7nb3Eq3D0zQADHF62EKv39bq0U3roUZrEQBgR9mCRgP9oUQ/t7DPLJ1/MsbBZTd3bEAD7aMDjE/UALBR0i5eSbuYlbvYt4UWRpgkTyMiIiIqqB8kxjOM8Rm7yjTy/LH7GRhXTCkvE0/h2vnpa6vzBSM9XQ1ip6lvAtDAjhjjNgYQ32KMC+wqU83zx+4FML5VntdGP2hhsNtUpnPLpq9N0oWYjCqC28YWWqPJYhQzDuHa+elwqzMoaReTcomIiIjM1Q8SG9to4TWC+dSw9hi+0Z+xwgxu8z+g9yciNZ/LX0tGzBTplOltRRw0Kh0mixcBWmMPLTgI5lO52mPYzT+13VemfSNElz1g0Cyu+VuZrr0IVHXxLcZiJ73rOIbbPAF6l4jU47o8KG+XleUq4luMIVAaRxMRERGtFSTiBfoBcGLfIM4FOjOE/jms2tPNdwCAneaL+fRrHE/hdj6WjJgpGns4ECMMKhbWifFJ4SaP0O9g7B2lQVgjrYev1SNG6NuwlOgq9m1YrpqugQaa+endGum6vRYGHa3cOIbfGaDVy4LTdAq52VDaJYTbOSy0i2m5c+lUvback4iIiGguFyTG/mLKt3n4FaPDfxbTv2rw1/4Dlz3gtKNON/+L9/gNsr9dM79tHAUvMWgu8up0ptjv/Q4x+gjL0m+GyTSwdyAwGnzQdyQOLnG5/x6d+VStjfe4xFD9vpx2P62HOt3cwXv0ILXFfAJaumYHk4OosObPKF27j+Gllq5zClwOlXRtHAUtDJqLNJ3Oe+z3PIjRISwrf3ONUbmp8P0FhHekrYkkIiIiWqj8Mu0fQwjXOil8mXbs2+joASEl+GXaREREZGCN6eanJLlh4/C0fKyRisLTQ2A+5U5ERERU7gcfSSwKXQu7F8oGJyhMHRMRERHRcs8uSCQiIiKi+/vBp5uJiIiI6CEwSCQiIiKiAgaJRERERFTAIJGIiIiIChgkEhEREVEBg0QiIiIiKmCQSEREREQFDBKJiIiIqIBBIhEREREVMEgkIiIiogIGiURERERUwCCRiIiIiAoYJBIRERFRAYNEIiIiIipgkEhEREREBQwSiYiIiKiAQSIRERERFTBIJCIiIqICBolEREREVMAgkYiIiIgKGCQSERERUQGDRCIiIiIqYJBIRERERAUMEomIiIio4OkGiaEL2w31rfTUuBZgaY+q8+a7gJ2l8fW9AIDQtWD7sb6ZiIiIvrMnGiTGcHfHODhq6zto0+IYvmvDssuDNiOBBKTy6JecN98GtvrAME1zhNJgsn3kAYenKO55IuIb2PaNvpWIiOjZeZJBYux3cCEO0G3oe2iTYt+F3exgstODHHb13RsUAoMDQI0dG11gfALog4aNLnrOBU44mkhERPSoikFifAPXPoZlpQ/7Gq59XBj0Cd3zRRrrGLZ9jXAj7+sxPgxGEAd7ua2ha8GykqnI2HdhW8nflmXDLQkoQtdO96fPs93y44t9uPYinWW7cG2rUN/7pCscXhzCd+1cHWw3LMRLQHl+peXWEYdwbQvNwQ4uoyH63ZKRv02Kb4HWlr4VaI2ASN8ItPcdjA5Py9ujppX9NLxO910jjKdK3z/X2ngG3z6G1fyI0ehjLk9LH1mMp/Ddc9jzNOew3Wl5fUpeb4X+QkRE9Bhkzp10cCad4G6xKbqTjngnnUDZ5J1J4UxkFCnbgk9SiCupJFtP5EkBIT0l78UuIYUQUjiBVHcHnpBCeULkpWlyx+dJIRzt+CLpQEgnUBNG0hHI1dc4XeBIIbzcsUkZycARhfzUY5NSysCBhPDyG03LrSFwhISe5304uYlmKSGk1PMOHCkLdUufW36iK/tAHeb9dCIdnEngTHpp34+CT1LgrFAVGX2SQnzSNuruSs7vOwn9ecGVFOKT1l/uZOCcrX1+iYiINkULEpM3y+yNstxEOtDfZFPBlYQz0bfWEzgS0IO5ROQJidJ3z0g68+cEyv81gaM9P5AOhPQKkYDOLJ0nKgKbyJOiLEhSlaYxK9dMJD0BiUKgvGmRlELIfBRfM0iUgXSwfiCcqNNPJ9JB/oOQlFJ64qx4eEZBYomS55XmL8vTEhERfW/adPM2+sFLDHb/Uaa/zuH6s0WSeIYxPmNXnW7LHrufgbGS9gGInaa+CUADO2KM2ziZ2hzjArvKVPP8sXsBjG+V57XRD1oY7DaV6dyy6WuTdCEmoxa2ytZRNrbQGk0WN2PEIVw7Px1udQYY5Z9lWK6pBrpDiaA1xq5lwy2de9+EBnAA4IOSf3NHTZBX2mAbULufvsb+pmbd4ylcOz/NbXW+aOd3isnoZXn1Gy/QGt093Zt3iIjop1Bck9j+A0P5FlK+hZR/I7r8DRj8s1if1dhGC68RzNNoj+EbLcOamjsQSAO+EqNJySI2xIsArbGHFhwEyShp8aHfoNHuYzjfHyG67AGDZnHN38p07UWgqotvMRY76X0bMdzmCdC7RKQe1+UBhP48mJRbT7s/hIx6wEkTVtU6zU1rbAGjibYxBsYCKIv541uMIVD6ecDUQ/fTSjO4zf+A3p+I1PIuf9XO7zZ2xLeK/jLDWPySu8+HiIjoe8sFibF/Dsu9QTx/43qBBn5BfhzoBfoBcGKr6QBghtA/h+VO1Y31NfZwIEYYqCNRCjE+KdzkEfodjL2j9E21kR6frx1fjNC3YSnRVezbsFw1XQMNNLX6mqfr9loYdLRy4xh+Z4BWLwtOkyB3p9lANogUxyHczmFhJNG03NoabfSHEtEBcNK04fprRpy+DdguchUOXeAQwJ46RNYGvDFyd2T4p0Crh3kjqKIJRmjls6jtAfvp6G4RXGc3u8zzuwMA7DRfKOd3CrfzsXB+u72XGHS044tn8Dtf0Oo9VBBLRERkSJ17Thb6f5KOeCeB7HEmHa+4RjEKytLdcz1iKvJEyU0c6Q0pXiSjwJECkACSmzBKFnZFgScdkaXJ0uUXnSU3uJSly+dnmi5NnE8nnMK6s/zxI7mhJvDSbYs1g7XKXVcUSc+pWutpIPCkFMqNK8LJr0dUOWKRzime30zgIHcj0n2s7KfBVW5fUmyyRjHbLrT+H3lXUlTlJ6WMAnX/u+RGmeBTuk1bJxlpxyeuCv2FiIjoMVhSSqkHjo8vhGudYCca5r4rMfZtdHCJIb9A8fmKfdjNCXqyz+lWIiKiR1Rck/gkJDdsHJ6uOQ1KP6zw9BCYLx0gIiKix/JERxKLQtfC7oWywQkgy37+jYiIiIju7YcJEomIiIjo+3mi081ERERE9JgYJBIRERFRAYNEIiIiIipgkEhEREREBQwSaTNsK/+LKvRzYj8o91zaZdP12HR+RLRRDBLXFbqwy35A2bYAK73whW7yf8vVU5HaTpuw6fxMPVa5z8Wm22/T+f0s/OxalT5sF7nfPqXlXAuwfX3rguH7QuhasNl36QlhkLiWGO7uGAdHJd/T2Er/3WoAzfRXlkXZry3HgGsrF2Ubix8EfgJif/lFTzeUyP08zipDCXhC37q+Tedn6rHKfap+1n6wSt12+Z5iP/m99Wj+o5nAsF/+u+qbrsem81ul7nVtUwzfF9pHHnB4ipLhB6JHwSBxDbHfwYU4KL+27QgAAmgCaGwl21rpv3MhYDWBnd7ionzZA06aQNnoJBHRQxI75UEhmStc5xVG7wsAGl30nAuccDSRnohCkBi657Cs4/nDtq/LB7jiG7j2Ip1lX8O1j4sxTjyFa6t5nsP1r2HbN4s04fV8vxsCcXgNOyvfvcnNeqw6vtjP73fD5Fiz/CzrGJY7TRNP4bvnyr5z2O50xSxLjA+DEcTBnr5D0UovuE1AANhp5ne7J4AXAV1lJLLRBoYRMN4FQgB+OsqofurNtll2fiooDvOjkpZdDDbVKY44XEx/WHZS3lyc7GseAqNDbQpK/wQe5vcvu7DlprPs8rQm9ciY5Ado+W1gGu2xyo3DZLQ5V7ZbPCexr5zbknJN+8G8r6WPMM1b3TY/Nz9AP1jVLsvS2Wn9azNoF9PzkVl1fLWuG+n5LHut58o2qEfGqJ/WyG/V68i4/epc1wzKXcuK94VUe9/B6PD0/sURbYJURN6ZFM5ERpGyLfgkhbiSgZpQ3kkHZ9IJ7habojvpiHfSySWcSAdn0lPTyTsZeGcS4pOyLRE47yTEmYS4mj8nCiYyO5x6x6dvk9IrHN9dLi85P4bisc1FnhQQ0tOeZy6QEo6+ccETcp555EkpPD2FlELIeaNIKaWMtL+llA5KnhtICZE8gvQJgZf8rT+/quwq6nHrPCHzDR8l2wDtOYb1MM0vS6fmGXhSiiXtv8xjlZudt+ycSbkoW22bwCm2lYykdITMvxhM+0FU3lcFtPwUT7EfGLdLVGznKFpeX1PL2qXW+TA4vqrXbuG6kapKX8akHqv6qWpZfsavI9P2M6yrcbmKQl+8h3u/xxBtjhIkTkoDKymllMGVhDNRNpQFf0WB804Kb3kaVZJeLUdV5/jSgFItO/okxbLgL7MqXeBIwCk/DhOrLlLqRbMqbdXFXlX63CB5A9UPviy/0ucvUXmxXxIUO3pwUKJwHKb5LUkXOGtc0Jfk96Dl6vkvUXYeZVUbGvYD/bwW8tLo6eeWtItJ/Qrl1sivrF6yKk89yNmQynaRNc6H4fEV6pUq5JeqSl9mWT30djdRmd+S81t4HZm2n0ld65Sr2GSQKAPpAJvLjugeFtPN8QxjfMauOi2bPXY/A+OZMv64jX7wEoPdfxZp7HO4vpom0dp6oW9aqrW1rW9K1Do+oNH9Da3DT/MZh/D0I1q9N7k0xanwY1idLxjlU21WYwsYTfSt91OY4rGAzkBPlXKAkvttHkx8W7pAG8jW6ShM6mGaX3wL4CKfV/bYvQDGt+ozV3uscjNbqxaMhcAom87SlPY5w37Q7QGHp4u/Tw+BXldNYca0/bDhflCrXdpA0AJ2m4ty7SVT2Btlcj4e8/gMreynhmq/jkzaz0DtchUV08dEP7JFkNjYRguvEci3kGWPoRZgtf/AcL7/b0SXvwGDfwpLh8a3xcBxLXWPD9vYdz7jxJ8B8Q1Oxr8jfzPyDG7zP6D3JyI1n8tfsfTeyOYOBMa4Xfu63Aaci/L1RgiTuwz36lxoY6B5AvQuFzfBSAlcHugJH0fhjVgxUcNxw3qY5tfYS9441LzUx7BmoPNY5WZWdrg2IMbl66aWBVQrpf3Vj5M1bGNvvTdj0/bbdD+o2y7tvlJulNxQNmhWvF4fwVM/vpX91NBDvY5WWbfc7nBzd2nHtxhDMOakJ0G5ceUF+gFwYt8gzr3OZwj988XNHkhvDnHVdC/QwC/Q34baR78Dh//CD5VAMZ4h9K9hW+flN8RUMj++TFL+J/inH4GDbW0w4Q4AsNN8Md8ex1O4nY/LRxIbezgQIww+1Dr4vCMP2NVGAEIfsHcB7zI/6jEaLN7gsoXZuQOMkn+aypPiEOgcLv5e12hSLFv/FLBSG/DG2vPiZDH9hbLJuB6m+TWAAMmi9NypStM+WD02XW7aXw47+a9IiuP0pg3lZoReC+ho5cZxMgq3zuhfJv1aDpweAktv2FrGtP023Q9qtItvA66arpHcZPBU1Dm+ldeNB2DaT408wOsos/S6tk65cTraWPzew7VEE4zQqjdWQPRQ9PnnKPgkHfFOAtnjTDraOsHkBpKydCXrD6OJdMRZLp1wPuVuGAkcNR/lUbI20OT4VEneV4WlKVJKGQVXUijlCXElg+BTuq1i/aOUMvKExNJ1LQYiL1lwPv+MWrHWyHMWaYSTpMmel63lCZQ083Re+ne6viaXJlurk67lyR762iC1bAgpPa1FspsEyh76gppCXspNBllak3rUyU/KdMG5emwl9ajjscqNgmSNlZqf41WsudLaUE2zTj+Q6Xoz/RxkfoR+sKpdZLaurOy86QkNmbRLnfNR5/jWuW6oD/W0mdQjY9JP6+S36nVUp/0yhT5T8rpcVW5OlKapeH3UFDiQQj9mokdiSSmlHjjSKiFc6wQ70XD9GYY4BDq7JZ/uBRAM15vSIyKiH1fsw25O0JN9vgXQk8AgcV2hC+v9PmSfL2UiIrq/0LVwshNhuPboA9FmMUgkIiIiooLCL64QERERETFIJCIiIqICBolEREREVMAg8QmyLAuWZembiYiIiL4bBolEREREVHDvING3ky+npzy2CxEREf3IKoPE2E9+rWj+++Z2/teWHourHBODMCIiIqKHUf49iTFgN4FeBLSf6Hd6xj7QQfXvrT95MWB3gOFQ35GsSUTyk4n6LiIiIqLvonIkEeLpBohERERE9LDyQWKcTjE3gdFImWq2ADfMpVw+7Rsupqh9N03jJj9XnE1h5/KLk3Tq9LbtAveZ3c5Nl9uAHy+OWS/btZW6pmlzsvqkz1XroR/n0nZJ+XZ5G1t2mqCd/Kq8cfvBsB5EREREhvJBYgMYSkBGgBBJoJI99J8o7qfbIy+/HUiDnAgQI2Cwk6Q7GAPNk2QKWwbAxa4SXDWAvaO07PTRA9DMgqaaYh/oTIDLLL9LAB3gAoAXKXUJkynfo6FS1yGwdaoFYWnQFjjAxUlSj4Mg2Xa5r6Rb1S6p7rC8jWU29RwmQaRx+5nWg4iIiMhQ9XTzJojFmsGtFiAO0insJiAARErShja13T5K0qzj9BDo9YF5lg2ge1nMzz8BDi6VdKn2ETA+0TamxEESgHXTQLPRLj5/Ywzbb516EBERES3zsEGiKX2q1AKsDjDS05mIgbEAtIFPoAG0tE2TEbClR1ZI046AskG41pa+5fGtUw8iIiKiZZ5EkOg2AfSASJ16LRn5M1IVGMXAWNu0I4DbsnV7VYHmE/Vc6kFERERPx5MIEgFgp7mYLo1jwF13JBHAkQecqDeUxIBfkl+3Bww6SXlzadpWT9n2UEbKd09mo6mulsbAo9eDiIiInh+pCnK3UeQeTrBIFnnF/fOHU8zHi6QMHGV/JKVQ9kXB4m9ASiGkDJRtWdEry1VEnpKnSMpx0vLyCaV0hJJPmlY1P3b9IfLp6hxfll6tt+Ml29GGlBLz7avaL8lsdT2IiIiITJV/mfYz5VrATgR0y9bvPSH8Mm0iIiJ6bD9NkBj7QHMARMPiXcBPDYNEIiIiemxPZk3ixmVfDJ4+mgMgKPmaGCIiIiIq+mlGEn8kHEkkIiKixzYPEtO4hJ4pxptERERUB0cSiYiIiKjg+a5JJCIiIqK1MUgkIiIiooJ7B4m+fQzbn+mbiYiIiOgHVhkkxv41bOsYVvawrxc/IUdEREREz1r5jSvxDezmHXrRH2jziwWJiIiIfjqVI4kQvzBAJCIiIvpJ5YPE+CaZYm5+xGj0cTHVbB3DDdWEU7jKvsKaxPB6PkXtu+dJGneKOMymsM/hhtpz4hu4dn5627X1coEwzW9eNqfBiYiIiDauerq5AwyHb/Q9BbF/jg7+xLD7QttxA7v5EfAOMOz+At/+B4d4jeDyD7Sja1i7QCT/SH8mbwbX+hcI/kS/neYTz+B2/gF6b9Fvp5v8c3Qmv+HyaBuNdJQzDm/QOblDb/gH0mREREREdE/V082bIH7HsLsN4AW2WoA4+F8yhd38BQJANE94BwDYUZ6Kxgv0h4sAEZji9PAlev1FgAgAjfYbDHvArjtdbCQiIiKie3nYINHYNvrBSwx2/1Gmm8/hqtPY8QxjfMauesd19tj9DIz5NTxEREREm/JEgkQA7T8wlG8h5VtI+Teiy9+AwT+LNYmNbbTwGsE8jfYwmBonIiIiIjNPIkiM/XNY7g3i+Q0oL9DAL/npZ7xAPwBObDUdAMwQ+uewON1MREREtDH5G1fC62TqtoQT5G8gaR5+1ZMknAPI/amSzyt40V/YOj3G7kW6/2gGu/kRo3Tf3odzdCa/ojX+iItRltErON6f6Gs3xMThDU5P9HS/od/dzqUjIiIiovWV391MRERERD+1JzHdTERERERPC4NEIiIiIipgkEhEREREBQwSiYiIiKiAQSIRERERFTBIJCIiIqICBolEREREVMAgkYiIiIgKGCQSERERUQGDRCIiIiIqYJBIRERERAUMEomIiIiogEEiERERERUwSCQiIiKiAgaJRERERFTAIJGIiIiIChgkEhEREVEBg0QiIiIiKmCQSEREREQFDBKJiIiIqIBBIhEREREVMEgkIiIiogIGiURERERUwCCRiIiIiAoYJBIRERFRAYNEIiIiIipgkEhEREREBd89SPRtC5ZlwfZjfRd9L74L2BZgWYDr63vriUPAtZO8LAuwXWADpzb2bfYRIiKiR7R+kBj7sO36AUZ3KBF5Qt8MxCHcNIC0LAuW7SKMQ7iWi1BP+xzFMXzXhrVGm9bi28BWHxhKQErgCIC7ZgvHPtA8AfYvk7ykBA7GQNPVUxIREdEPZv0gcZNCH/YpcHQZQUqZPC6PcNvZxYWe9hmKfRd2s4PJTg9y2NV3b1AIDA6AtrKp0QXGJ+uN/jW6gBwC7cZiW3cIiPF6+cU+bNuFH4aIAGASIQx9uLYNDioSERF9X4UgMQ5d2PMRPRuuHyP27eRvNwQQJ1PGzUOMRoeLkT/LKh0Fi30X9jxNkp+WAv7JAAdHbTQaSrDRaKA7DODkkobwXTuXn+2GxXgkdOfH5IZpndK/bddP0s/TpCOWap1LBtZCN22DLB/bRVgouKa03OZgB5fREP2uGr09gPgWaG3pW4HWCElUtgG+DeAAUE6lsUYXw+ER9nCLk8MRRuP3APZwNByiWzO/0E3Pkx8b9MEa5zf2CyPerp30s02lKxyeab9HeX6l5RIREa0iFZEnpPACdYsMPEcKIaTwImW7lDLypBBefpsm8oQUTiAXz4xk4AkpgEV+aT5a7hUiGWkJAwcSFceR7BMSwpFekDwxCtTjCaQDIQGh7PekgJDpn8m2rB7qtsCTQjhSba06Aicp11ELemiBI2VZWzmQUj+/dUReNtlcnn9NkSckHE96Qukna4g8kfTdXB+USR9U8jU/v5F09HMWRdIRkE4uoWG6wCnp+5EMHFHIz6zfG5ZLRERkQAkSI+lAf1NMBE7Jm/XKIDEwy29lPisseX5STtkRZALpoPgG6gmhxEzV9ZCBI6E/eaVIegIShQCkKHAggYpH7XIfMEici6R0RHkZpiIlOIuKAXsdSbBZ1k5qX69zfpMPFdkHimpm6fL9TLGkT8+VpjErl4iIyMRiujn+gLHYyS1XyzR3Sm40WSW+Nc9vNDG7OSUO4dr5aUGrM8BIT6dobZUdgcrB/rIk8S3GuMCuWmb22L0Axrf6M1ZooDuUCFpj7Fo23NI5zUS7n67PLHv0lx10heaOvmVhq+Z8bqkG0B8CrUOYndASjS6Gw37SbxpdDOUwt+SxLrHT1DcBaGBHjHEb1z2/bfSDFga7TWU6t2z62iRdiMmoVd7sjS201NeEcb83KZeIiMjMIkhs7OXfmBTRpPh2tJL+RqfI5dfo4kBc4H1ZwpwYbvME6F0iUoOlywOsEcKaa+yhBQeBHqRljzVvNGn3h5BRDzhppndy6ykeQGMLGE20jTEwFkBZLHUft9+jQquNJmWLLeNFgFb3/Lb7GM73R4gue8CgWVzztzJdexGo6nIfsGr2+5XlEhERmVFuXGngyBvjxFffTWKEvouTcenbUTICmL3JZTd/zN+N2kl+uQX2MULfxol2y3J3GAAnNvxcpJSUbdvZV+Akb/Y7zcb8nog4DuF2DktGVDapgX4AnNg+4twbelKXRX3X0GijP5SIDoCTpg031/YPoQ14Y+TujPBPgVav/EaT0E2//9Auv1vZt5PvWZzvi5NtFw5q32nyQMT4pHCTR+h3MPaO0iDM/PzGvg3LVdM10EAT+visabpur4VBRys3juF3Bmj1suDUvN+blktERGREn3+OAkcKka19E9LxovSGluI6p8hzpJivkxPSKVn/V0yT5FdYVxdF0nPS7elDOPlF/VGg5oVk7VrgpdsW68oq1/Kpa7gCR9mXrQ1L1ijO81dvbgg86czbJXlOWX3XltW/dA3dhjlicaOJo69rUwROmk7IyjuLAk9KMf+WRCmFU532O8v6bb7fJH1QZ3J+kxtcytLl8zNNlybOpxNOYZ2iab+vVS4REdEKlpRS6oGjLvZtdHCJ4RMZHSIywX5LRES0vsL3JBIRERERLR1JDF0Lu+r6QSdY765aou+MfZeIiOh+lgaJRERERPRz4nQzERERERUwSCQiIiKiAgaJRERERFTAIJGIiIiIChgkEhEREVHBdw8SfduCZVmw1Z+Go2eD5/c7CV3Y9/lJyDXx/ObFvr25tvBdwLaSn8J0fX1vfUb5hYs0S9KFLs850c9o/SAx9mHb5ReUZbpDicgr+S3o7LefrfRhuwjjEK6V/XbzMxfH8F0b1hpt+iB4fjdio0HEXAx3d4yDo3t87yPP79Pi28BWHximP3B5BOA+HwKM8osB+wS4nP+oJrA/KUkHtI884PCU55LoJ7N+kLhJoQ/7FDi6jCClTB6XR7jt7EL9PuTnKvZd2M0OJjs9yGFX3/3j+8nP76bFfgcX4gBP5tcGf7bzG/uwbRd+GCICgEmEMPTh2jbW+zwQAoMDQI35G11gfAI8ZH7xBwAHgNqP2vvAxXtlQ6rRRc+5wMl6FSSiH1QhSIxDF/Z8RMCG68eIfTv52w0BxMmUU/MQo9HhYuTAskpHwWLfhT1Pk+SnpYB/MsDBURuNhnK1ajTQHQZwcklD+K6dy892w+J1NHTnx+SGaZ3Sv23XT9LP06QjHmqdSz4uh27aBlk+touwUHBNabnNwQ4uoyH63XuMDBni+f2O5/dBxPgwGEEc7Ok7AJ7f73N+G10Mh0fYwy1ODkcYjd8D2MPRcLhe4B7fAq0tfSvQGiGJQmsyza+xBYwGWuB4C4gdZcNCe9/B6PC0eL6I6PmSisgTUniBukUGniOFEFJ4kbJdShl5Uggvv00TeUIKJ5CLZ0Yy8IQUwCK/NB8t9wqRjLSEgQOJiuNI9gkJ4UgvSJ4YBerxBNKBkIBQ9ntSQMj0z2RbVg91W+BJIRyptlYdgZOU66gFPTCe3+93fjNJm5vV3kiUHH9Zljy/3/f8Rp6QcDzpCaU91hE4Upa1gQNZeqJXqZNf5EkphJQCUgoneVQVuaTvEdHzpASJkXRQftEMnJKL4Mo3mcAsv5X5rLDk+Uk5ZUeQCaQDSEdL4gn1QlhdDxk4EvqTV4qkJyBh8AYVOJBAxWONcqvqwfNbXo/1zm9SZuF8ZQ/jgKpC4EiUHi/Pb+Zhz28qUoLMNHha+/NenaDORJ38HCf/d+QV08yVtzcRPV+L6eb4A8ZiJ7eMJdPcKVmovkp8a57faGK2IDoO4dr5aSOrM8BIT6dobZUdgcrB/rIk8S3GuMCuWmb22L0Axrf6M1ZooDuUCFpj7Fo23CVzXu1+ur6r7NFfdtAleH7Lbfz8ttFXzlPkCQhPWas37OaWgG0Mz2+5jZ/fVKOL4bCftE+ji6Ecor3uiW2WT+8CALbWyNQ0v9gHxlraxhZweJrfRkQ/rUWQ2NhDq+JiH02WXcYrNLbM8mt0cSAu8L4sYU4Mt3kC9C4RqcHS5QHWeAs019hDCw4CPUhT3vTX0e4PIaMecNJM7wTVU2wYz2+5Bzq/D6a5A4ExbvX+wvNb7kc4v40tYDTRNsbAWABNbbOJOvkV1i62UXlC4luMIbCj50FEz5Zy40oDR94YJ756tY8R+i5OxhVXjdFkEdxki8fnq8bbSX65hekxQt/GiXbLY3cYACc2/FyklJRt29lXaCQrrneajflITByHcDuHS0ci7q+BfgCc2D7i3BtzUpdFfdfQaKM/lIgOgJOmDTfX9pvG81vuAc/vQ2js4UCMMPhQiBJ5fkv9COe3DXhj5G6N9k+BVi9/53EmdNPvNbRRfheJYX6NveIdz6ELoGIkMppghBb2yo6JiJ4nff45ChwpRLaGSkjHiyoX30eeI8V8vZWQTsn6oWKaJL/Curookp6Tbk8fwsmv34oCNS8ka4ICL922WHdUuZZPXacTOMq+bA1Tfj2ZWuco8KQzb5fkOWX1XVtW/wde8MPzq+T/Hc5vVdveR+SJyps9eH6V/L/D+d0oR2TfViilU35+pUzXHAJSQlTfZCIN84uC5KaVVenS81LWj4jo+bKklFIPHHWxb6ODSwzX+n4Heup4fn80IVzrBDuR2Veu8PzSvcU+7OYEPZmuwySin0LhexKJ6Klrox+0cHj6FKZK6WcQnh4C3hEDRKKfzNKRxNC1sKuuP3KC+nfV0pPF8/u88fwSEdF9LA0SiYiIiOjnxOlmIiIiIipgkEhEREREBQwSiYiIiKiAQSIRERERFTBIJCIiIqICBolEREREVMAgkYiIiIgKGCQSERERUQGDRCIiIiIqYJBIRERERAUMEomIiIiogEEiERERERUwSCQiIiKiAgaJRERERFTAIJGIiIiIChgkEhEREVEBg0QiIiIiKmCQSEREREQFDBKJiIiIqIBBIhEREREVMEgkIiIiogIGiURERERUwCCRiIiIiAoYJKZ824Ltx/pmIiIiop/Sdw8SfduCZT1cQBa6D5t/5qHr8SSEPmBbwCbq6FqApT3cUE9VW+zbz/scEBERPZL1g8TYh237+taVukOJyBOLDbEP20oCrvzDhhvWf/Nv97X8DXWHEsNuQ99cqVCP7yWO4bs2rDXa3ljsA7YN3G4BPUffu75AAlJ59Nt6CiIiInoi1g8SN6XRxVAGcOAgkBIyfUTBAca7nY0MYj0Xse/CbnYw2elBDrv67s1pdIHhEOg+0SAu9mHbLvwwRAQAkwhh6MO1bfYXIiKiDSkEiXHowk6nUi3LhuvHiH07+dsNAcTJVGvzEKPRYX70r2R0K/ZdZaQwyc9Eo91FzxlhEuW3h256LOnDtl1UDTjG4aqyQ7hqXoX9C0b1iEP4rp1LZ7shSlLWE4dwbQvNwQ4uoyH6TzV4+14aXQyHR9jDLU4ORxiN3wPYw9FwiBqDwYC2PMHkHBv3v9iHO38dWbBsF65tFWfY75GucHh1+l9JfqXlEhHRTysXJMa+jc7tPobDbETvEvs4RWcACC+C7LcBNNAdSsjIgxDefORPSlkY3Yp9G53JPi7naS6xjw46h6NcujJx6OPkQmCnqWzzbZyghyhalHnZ28FJx0XhvW3QQedkB5dZ2ugSO4OOFgi20c9GLpdMHRvXo9HE3tEQw3m6IXrYRbMkeDYVujas5gnQiyCHXTRqBkEboUfq69pV1yTaKI+uTDWA2wFGjgcPFzi5BdZpmvnyhEFHO8dD7CPfX8z7Xwy3OUjOWZbf5VEuRa10oQu7AxzNX5cScniErVM7H9QZ9z/DcomI6Ocm5yLpwJHBYsNc4EAKL8pvjDwphJfflhPUyC+QDiChPYSnPrs6Pxk4Es5iT+QJidJjq65j5IliHaVcWm6xHiVWtlOVSHoCEqK8bFXgFNtu/lDaZS2BI+V98ygVSSmElCuar1LkSZG1TeRJASGDNfOKPFHRTmp/qe4Hev9L0grprTwgs3SeELK0m5n0rdI0ZuUSEdHPbTGSGH/AWOygbCKzuVM9ylYpvq2ZX35NopQRejiBZfvJdFl8izEusKtM9c0fuxfA+DaXmzjYy/2daGBHjHFbZwCrTj3iEK6dn460OgOsHjctk4zYBq0xdlfcxNPuq+2mPZ7szSEN4ADAh+p6LdXoYjjsJ+el0cVQDtFeZygxJdQh6zmlv9Tqf230gxYGu01lOrds+tokXYjJqIWtsro1ttAaTRajmMb9z6RcIiL62S2CxMZe/g1HEU2KbzMr6W9gCrP8Gmh3h/AwSOKIxh5ahUBSeWhT3aPBh9zfiSVvuFWM6xHDbZ4AvUtE6nFdHqAsJDbV7g8hox5w0oRVtf6N7m1UOqUeL/pLzf6Hdl+Z9o0QXfaAQbO45m9lunb1B5vcB5ia/W9luURE9LNT1iQ2cOSNceKr7xIxQt/Fybj0bQYYTRZBS3pzRXJzCwC0k/xyC+djhL6Nk4v5hqXi0MXhPKhroB8AJ7aPOPeGmeS5KDchMICtpo1j+PYJxt5R6ahgNdN6JEHGTrMxXxsXxyHczmHJSE5NjTb6Q4noADhp2nBz5+gJCN3FOsOyYMa3AdtF7sSFLnAIYK9OxP5wxPikcJNH6HeU/mLe/2LfhuWq6RpooImdeYqEabpur4VBRys3juF3Bmj1suDUvP+ZlktERD85ff45ChwpRLamTUjHiyrX60WeI8V8/ZuQTm4NYVWaJL/5ernIU/ZrD+EU1mJFgSed+fEVy83W5wkvKi07l1d2HGUPbY1aWV65emRtp+QhhCODIKtfxXq2uqJIek7VGroNiTz12wzzj7JiAyfdv2SNYeBJKZR8hFOd9jvL+nf+/BX7izTofzLLzylLV+x/JunSxPl0pa8Ns/5Xq1wiIvppWVJKqQeOuti30cFlrS+bJvpRsH8TEREVFb4nkYiIiIho6Uhi6FrYVdfdOcETvluWqD72cSIionJLg0QiIiIi+jlxupmIiIiIChgkEhEREVEBg0QiIiIiKmCQSEREREQFDBJTvm3B5m/X/vTYDwjsB0REwGMEib5twbIe7gIcug+bf+ah6/HcPXT7sR/UFLqwH+GHmx+6/Z5rP4h9e3Nl+S5gW8lPa7q+vre+0E/yW3Z8cZom+znPirSh+/3alIiK1g8SYx+2Xf+C0h1KRJ7yW9CxD9tKLrD5hw13/sPQ5tp9LX9D3aGs9YsbhXp8L3EM37VhrdH2D4L9YK1y1rXR4GAuhrs7xsHRPb4fkv1grXIenW8DW31gmP5g5hGAdT8sxD5g28DtFtBz9L2KEGgOgF6UlBldAoNmaaDYPvKAw1OseUREdE/rB4mb0uhiKAM4cBBICZk+ouAA491O2XXjpxX7LuxmB5OdHuSwq+/+sbEfPJrY7+BCHKBGTPRw2A+qxT5s24UfhogAYBIhDH24tr1mu4TA4ABQPxs0usD4BFgnv0YXGA6B7ooPG/4J4F0C7bTDNRrApQcMPugpgUYXPecCJ+tVkIjuqRAkxqELO506sSwbrh8j9u3kbzcEECdTK81DjEaH+U/7JSMJse8qIwNJfiYa7S56zgiTKL89dNNjSR+27aJqgCEOV5UdwlXzKuxfMKpHHMJ37Vw62w3Xut7mxCFc20JzsIPLaIj+qovwBrAflDOqx0P1gwcR48NgBHGwp+8A2A+0/QtG9dh0P2h0MRweYQ+3ODkcYTR+D2APR8PhegF+fAu0tvStQGuEJAp9IN0hCgccTcqPBUB738Ho8HT9diOi9UlF5AkpvEDdIgPPkUIIKbxI2S6ljDwphJffpok8IYUTyMUzIxl4QgpAyy+QDhyZKznwpICQarJ5fuq2wJNCaM/1RHLMwlukjSLpldUjldR9yT6jekS5Y5NSysCBxIp2WiZwhASEdILyY3sI7AdL9hnVY/P9ILPs+NYSFdt3sYv9oIx5PR6mH0SekHA86Qm9vJoCR8qyY3EgSztEHYEjpaOehSWiQEohpNKgeUv6KBE9LCVIjAoX5kzglFyMVr4pFC/08z2F/ALpABLaI/8GVZ2fDBwJ5YIUeaLiQlxdx+o3hepyi/UosbKdqkTSE5DQ3vDKBE6x7eYP0wv1XHUbldZ3Zf3qtB/7QVF5m8wfwqt8bzUSOBKl9apuo9L6rqxfnfYrr/PP3Q9SkRIEp8HT2p8fn0KQuCpAlHLeH0yyI6LNWkw3xx8wFju55SmZ5s4aC7Lj25r55dcgSRmhhxNYtp9MM8S3GOMCu+p0VvbYvQDGt7ncyqfPGtgRY9zWmbeoU484hGvnp7+szgCjfCpDDXSHEkFrjN0Vi/bbfbXdtEe/7MiXYD8oV6ceG+0HbfTVtXmegPCiRfsMu1hnpnEl9oNydeqx0X6QanQxHPaT8htdDOVwvrSvtuaOvmVha91Ma4h9oHMCXA7xMJ2YiO5rESQ29tAaTUrvIosma1zWGlv3zK+BdncIDwN8iNPjK7xxKA/tRo5R2SJohJiMWvWuf8b1iOE2T4DeJSL1uC4PUPYWaKrdH0JGPeCkCWvJequNYT8oZ1yPh+kHD6a5A4GSQIn9oJxxPX6AftDYAkYTbWMMjAXQ1DZvWugCnUlyo8uq9o9vMYbAzkMfExEVKDeuNHDkjXHiq5e/GKHv4mRccVkbTRZBS3pzRbKYHQDaSX65hdoxQt/GycV8w1Jx6OJwfhFvoB8AJ7aPOPeGluS5KDchMICtpo1j+PYJxt5R6ShANdN6JCu9d5qN+TUvjkO4ncP7jRwAQKON/lAiOgBOmjbc3DnaNPaDcqb1eMB+8BAaezgQIww+FKJE9oNSpvX4EfpBG/DG+a+e8U+BVq88cAvdxfca6t2lDtcG3u8Dw//f3v3rtq3seQD/8h3O7r6AZCBe7QsMsbjA7eQ0B4uFW3XDYgurcWfgngDq0pDFRWJ3bo1NcJtDdgfYBNYLHF0F8PANknf4bUFSGg6H0lCR48T5fgAiETmafxyRP5ND6Xq7rswAz4NOQPVQyxITvPTViYgel3v/2eRalGrmASnRqemdn2NSLWozZ0iJbs0Z6ktT5QfU8+VMam1351vpztQYk6eiN/XrltvMz1Op8Zbdyquph29xJsD48mq1o+k7Kw+ltOR50z7/PKbBjJFUq079jo3joF6+s3HQtw++Rv+cPY6DzfKdjYOj0krqb0kU0f5xIFLPMwRE0DOH0KTbfNzFbqzybAf88yND53oS0aOIRETcwNFVZjFmuB305bL0/HAcPFcFkmiBUxP2VSocB/TNlBni8RpXUs/DJKJvqvM9iUT0s5niOp9g/voxpzEQDVe8ngODpwQQ0bHsvJJYJBHO7Hk2Oh/+tCz98DgOCBwHREQ/nZ1BIhERERH9nHi7mYiIiIg6GCQSERERUQeDRCIiIiLqYJBIRERERB0MEomIiIiog0EiEREREXUwSCQiIiKiDgaJRERERNTBIJGIiIiIOhgkEhEREVEHg0QiIiIi6mCQSEREREQdDBKJiIiIqINBIhERERF1MEgkIiIiog4GiURERETUwSCRiIiIiDoYJBIRERFRB4NEIiIiIupgkEhEREREHQwSiYiIiKiDQSIRERERdTBIJCIiIqIOBolERERE1PHNg8QsjhBFEeKsdDcdRZE8bv5EREREP4PDg8QyQxxn7tq9Lu4FJlXuaqAskNQBZBRFiOIEWRIPDvam1z3509cpS2RJjOiAfU5EREQ/nsODxKMqkMwWOL0ViFSLuQLubpZuQnoCZZYgHs+wPr2C3F+4m4mIiOgZ6gSJZZEg3lzRi5FkJcosrl4nBYCyumU8nmO5nG+v/EWR9ypTmSWIN2mq/DqKf+AG57gYbVeNpte49V0RLLPuFUdPlmjasqvsItnkkxTt9HGSwU5dJHUfNNvjBEWToMmnvvpZvb+w8ouRbBIH5GfztDeJq/pu0xTVVVerrXFStOp/kPrq7vjuFLfmHtcXUzfF0djTBELGzFH77yvTdao3ZH948vOWS0RE9K2JxaRKVJrbayRPtSilRKXGWi8iJhWl0vY6h0mVKJ3L9p1G8lSJApz8ctGA6NRYaT1yLUqlThojuVairWqbVFV1VqmYJrExkvraISK5hkApgdKS5tV2k2/rvWmH9VaTp6KUlk2xJq3blYuIkVRBoLTkpqo3oIflV60VDSW6rlO1yohWaLVXxLTykk2bdu+fXXKtBG7Zj2yz31pjRqoxY+23x+i/oHSB4y98fwSWS0RE9ASsINGIhnuSreTaDeokIEjMB+aXS6qrABKoAqwmYGukSon7NpFuXUyqPCdk6W1jVR93baO/HZJrQXM2d+rQaqNJRW3yCMyvWiEaqtMPQfbunz5WgOtucuS63le+5YAox6Sq5332fnuM/gtLFzr+vLxpwsolIiJ6CtvbzeXvWKlT+G4ojk89t333KR+G5Tea4uL6HvfNnMTbX7FejK0HVwqslxOcWLekN0YnmCzXsO/QqfOX1qvGCKdqhQfPfb/Jia+mdTtwgzPr1uZmObsBVg/uO3YblN8U1/kEd2dj63ak5/ZrWSCJ27dfo9kdDpvROcLFvSCfrHDmuU1um15v55B2luue/txDnY7dVe399hj9F5RuwPgL3h8h5RIRET2NbZA4etkJtBpm3T297eWeOC1ufkXSnYM1Gk1xfaWxXJt6zbQ3wPMFpMu7361XjR0n+j6jl5hAI3eDoGYZ+iDH0Pym15vAWcTA3F4Bd2Orv0ok4wVwdQtj53N7Dk8oHmx6fQ8xV8BijKhvvt8j2O5vW7ndb0fvv9B0oeNv4P7YWy4REdHTsB5cGeEyXWGRtZ6IQJElWKy8pzdgud4GD81X2GzObtMqv9aE/RJFFmNxs1mxcXMWI2tFIiWKf9xA/7oN/S6uJribZShbyUpksztMrtrBgcId4thKW5bI4gVW6aX36ma/Ea5zYGHnBWzasm1vqPD8yixGlNjpRhhhjNNNCgCogqrT8QhN7FuWBZLZ3HPlaqDRFNf3AnMOLMYxktbYeBxqteg85FFkM2u/Hbv/wtOFjb/w/RFaLhER0ZNw7z+bXItSzdwyVT1M4jw4sEmb6u0cQijRnnl93TRVfva8tVxDdJqL3pRbp/XN1TJpO53SrXlizTw5lRpv2bbeOXWduWPVgxGd+jXtzXVrfWqsvHW+eail2bY3v6bMVInSvnTtdpjcbieqBzjypsye+XtDGSOp7pszeBzNOGu3p9teOXb/BaarE+8cfzJgfwwql4iI6BuLRETcwNFVZjFmuMW9/R01REfGcUZERPT96HxPIhERERHRziuJRRLhzJ4/qPODn1ol2oVjjYiI6PuyM0gkIiIiop8TbzcTERERUQeDRCIiIiLqYJBIRERERB0MEomIiIiog0EiEREREXUwSCQiIiKiDgaJRERERNTBIJGIiIiIOhgkEhEREVEHg0QiIiIi6mCQSEREREQdDBKJiIiIqINBIhERERF1MEgkIiIiog4GiURERETUwSCRiIiIiDoYJBIRERFRB4NEIiIiIupgkEhEREREHQwSiYiIiKiDQSIRERERdTBIJCIiIqIOBolERERE1MEg8TkqEiDO3LX0M4kjICvdtURERMEYJAb5hCR6hahe4uyLm6BfkSBOCndtdRKP6hN5kVT/jxI31XBFApwBuL9wtzxvdn/ScMfuv2Pn96081ueSDlIkEeIfbQwRPSMMEoO8wLX8DSJ/g0n/zd24Q4nkbIXzy6m7AZjU/56MgPFp9X9V/wsAWVyfoCKgiTHLbLsuigA3+CwLYAHAXLfX/wzuBUiVu/bndS/Axchd2+/Y/Xfs/L6VfZ9L+qamlykwf705BBLRt8Ug8RGV2Qw36tx/rj5VABQwBjA6qdZN6n8B4OIeyHX1/0V963h0AYgAGkBqgGsn+BxNgftrwFceEe2373NJ39boAlf6BgteTSR6Ep0gsUjebm6rRtErxPF7FL7PZ/kRSbxNF8XvkcSvOhe3UH5CEtt5vkWSvUccf9ymKd5vticFUBbvETflJx9hF7+vfmXW3p4UVV2b/KLoFaLkU534E7LkrbXtLeLkU6u8w5X4/W4Jdf7S3WCZ1AHdGFAATsduAkDnAOb9t+2aK472HMTNVcgYKOtb0FEExAmQ1NuSwrqdFqOzk5t0zRInVV62zfvrq53268SZE1lm21t5ffkNkVllRXF//4S0Y4iyAGI7z7iqizsHdF977VuZZWGljbdXjuFcUY7qfu69oly01/f1CQL7ryyc/ou7V68bIfkhoF92pYutq+q2Vl+6Gw8R8Lk8kiKJEEXVLdUySxBH1esoipF4+rBI4np7/b446Xx0gar/knibLooTJHHU3X1fka5TvbJAlsStNsRJ4d8lnvy85QKY/qqxnL/250NEj0ssJn0jSq/FGGtd/kGUeie5nVA+i8Yb0fnn7SrzWbT6TXQr4Vo03khqp5PPkqdvBOqDta6S698E6o1Avdu8x+RraaozrH7uOpG0U7/PrbxkU4du3RomfSMqtdvTw6SioCR18h8k1yI6FzGpCPR2vYa0MjapiEq3rxtKidV5IoBImouIEVEQUbranut2/qmqy92ukjyt0vtoVGUpLZLXb8qtjs61p35GRCvp7KQQTf02TLUOTr8MbcdeuQjUto0i27Lt9gW3t87PzjNPq9etcWPa+6eh0N9/qWr3hS20/8Q49Wj2tdO20PyC+8V0+9nUY9bX3lxXZaEezz8YkypRSonSuTNUlSir/0xap7G7JU9FKe10ixENJdrpP63gHP8C0+ValEqdrjWSa9XJr3s8hcCzz4PK3Ww7wrGUiA5iBYlrb2AlIiL5O4FeWyt8wV9Xrn8LC6hqVXq7HNuQ+nmCOfNB1I7gb2NPuk6+fXItgHvwHqgJEqU+Odv/PyRItNPYebSC0NwfkIhTH5tugs8edj1sbp2C7Khfq192pOtrxz5uv/cJbm9eBTduVXzvd4O+Tl4ON/3Gjn4JaV+n3AH5+dolfXm6wfjzZVIl8I5HI3pzDMmt/zty7bw/Fw0l6d7+C0uXqp4AzaSido1B6UsTVu5WLho9ASQRPart7ebyC1b4E2f2bdlmOfsTWNlP9L7Adf6vuDv7+zZN/BaJ56nfyckv7qqdJicv3FWVQfUDRhd/wWT+YXN3qnj9ByZX/9lK070V/grR7J9YtlN9H65z4ObMf7vtmMoHADft25bNcnYDrB7cd1ROPA/nANUt0GVz+84xOgGWa3ftbuVD/4MEp9aDEoe2Y58TX0NsQ9urgb6us11cAfPX29ev58DVAU+wh/Yf6tvNrVvrETC7c9KE5jekX6ZAPgHOxtbt5h23sJ8B5b2lPcKpWuGhrPp5hRucWbeaN0tnPE9xnU9wdza2buf6bl+HpCuwXk78w350gslyvT0klQWSuH07PJrdeY6nIeUS0fdgGySOXmCC/0BeP8XbWe6dAGv6X7jfbP8fmNu/AHd/78wpWT10A8eDDK0fXuBX/ScW2Reg/IjF6q9oP2T8Bcn4/4Cr/4ax87n9dxzlmczxKRTqA/xRTKsHWZqHWB7L6GUVuNQ38DrL4K/WmQJq5Z8rtivA6NMJKCxr63R09HbU9u7QI7d3YwromypQKjNglYYFl67Q/kMJjBfA1W27327PrTRD8hvYL9Nrq1wD3F4Bd+PH/yNpgGY+YeQe9A6wXBt3FYByG6CNXmICjby6+9Nd3PE8vcb9ZruBqfuvU9W96abbQNVVPmClTuthWCKpx4ux63V77j+e7i3XUj5gBfWYU0OJqIf14MovuM6BRfwRZeuA8AVF9nb7sAfqh0MSO90vGOFf4J7+ppd/Beb/i6ywAsXyC4rsPeLorX/Cda/w+jWq8j8ge/0HcP7CuYjxGQBwOv5ls74sPyGZ/eH5y/cAo5c4V0vc/T6okbtNL6uHWG7cDQCWd9sTcPMgxEENGQE5qgcxWlUvq4covEfxPa4mwMzJryyrq1KDr4ZNgXTl1KOuW6tfHqEdlykwn7Uf8inL+qGN+iEhHLu9lvrrQPB6Dux8IGqX0P6rg5ax9akpC2A2374GBuQ3oF+yuHrwaZNuVD1E0ufoD66EKPGwAgCF1PcVVwOp1aLzkEeRzbBKL+sgbFQf/zLn+FeiyOJWoFpmMaLETjfCCOPO8Tk03cXVBHczp9yyRDa7w2Sz36rxcjoeWcfTAsls3jkMhZa7YdZYYoKXvquZRPS43PvPJv8gWv0mQLO8Ee3ME6weIPGl88zVM2vR6k0rndIfWhOcc23nYy2euYEh9bNVeb/zT4XK34myylPqneT5h3rddv6jSe36O4szF9JmUuWZtB2omfjfLNvKVK/dSUJpM3m/fiAlryf6o36oZJNXPS9M169182CMtU2kfsDDvoakuvMOmzzcxddm4+TXPDRzKLu9qOffNX1mT14KaccQJu/2p067bdnX3s3DFnUeRrZzFJvF3cfS9HnPHEB3zNiLO6ErpP9adWzGVTNWnDqE5CcB/SLNgzC+/eYmrD3FgysmFQX0zCUcxtQPqJhcV3kCAijRnvaaPBWtmjRNunYdqgdcfOna+YWmqxO30ynd2R3t+qN6oCav+8maTzmoXKkefrEf4CGibycSEXEDRzqWAkm0wKm5939XIhH9kMosxngOpEf4bJdZjBlucf+1GT1HZYZ4vMaVXB80u4KIvk7nexLpmKoJ2vPXB9zaJKLvllkvAX311QEi7Va8ngObW+5E9K3xSiIR0RMpkghn9txNnUPcX1IiInoiDBKJiIiIqIO3m4mIiIiog0EiEREREXUwSCQiIiKiDgaJRERERNTBIJG+rTh61r/BS/TNFEn1i0LHwM8lEXkwSAzyCUn0ClG9xNmA36MuEsS+n4CLo+qnxLKy/bNi1Gb30zEcO79QT1UuPU9FApzh8N8g/1E80+NkFle/+x3/7MeDkP2bxdX6Y/1BhMBy66+o+tn3EYPEIC9wLX+DyN9g0n9zN+5QIjlb4dz3266T+t+TETCuf7VU+X69tASS+kMSRUAct387+KmV2bAP771g0DcQ3wuQKnft4Y6dX6inKpeen7IAFgDMtbvlcEM/l99K8HHyiZQZ4iHHv9rFvcD4jgdlgaQOIKMoQhQnKMoCSZTAc6nhxxeyfy/uAZO2132tkHIBTC9TYP76efZ9IAaJj6jMZrhR5/5j76kCoIAxgNFJtW5S/7tRANEYOL3a/oLu7RWwGAO+q5NE9PyNpsD9NeA7rjw3QcfJZ6LIEL8GLm8NRKRabi/xMDuD/X3rz8pT7d/QckcXuNI3WPzEVxM7QWKRvN3cVo2iV4jj9/4LV+VHJPE2XRS/RxK/6sYu5ScksZ3nWyTZe8Txx22a4v1me1IAZfEecVN+8hF28fvqV2bt7UlR1bXJL4peIUo+1Yk/IUveWtveIk4+tco7XInf75ZQ5y/dDZZJfaAfAwrA6bi9OVkAqQEurCuRoylwb4DVGVD0XIpv1kUxWo0pi/ZVySjuBpv2pfey2F6Wj+KqvI2y2jaeA8u5lafvtkDR3r7rA5c15ddl+tKGtKMRkh/g5BcBcdLuu6GeqtyyqK42t8p25q6F9t9mLETVvrdfJ3V+weOldqz2Pla5If2HIfllVt3qdHHdn0PTHXO/VQnbbegbo6HlNlr7xt14iD3HyUdQFgnizRW9GElWoszi6nV1UqluGY/nWC7n2yt/UYTIHSsAyixBvElT5eekQLa4w/nlFKORFf2PRri4z6FbSQtkSdzKL06KblcXyaZO1Xl1W4c4yar0mzT1FUu7zZ5dXCR1HzT5xIk/Phhk4P7dnN/qsWiXbx934/rYYH8WWsLKnf6qsZy/7vbvz0IsJn0jSq/FGGtd/kGUeie5nVA+i8Yb0fnn7SrzWbT6TXQr4Vo03khqp5PPkqdvBOqDta6S698E6o1Avdu8x+RraaozrH7uOpG0U7/PrbxkU4du3RomfSMqtdvTw6SioCR18g+Xi0C7K7dSJZvMTSqiUjeFiFKy6TwRETHOaxHR8Lw3F4Gqlrx+Q55Wr93395Xdx663K1XS3kGmWgc47wlsR2h+TTo7zzwVUTv6f5enKrfZb80+E9mW3eqbwP5raFRjSWlrPNjtCxwvj9Xeo5Ub2H/B+ZlufsaIKEj74DQg3VH3m2XX53Joubmu73vo7vt+ACZVotL25zdPtSilRLl9ZFJRff1QM6kSpXOrK4zkqRIFbPOr8wnrLuM5b0HQU49qmxIoLWk9Dkxu1ycXDSWAsrZX56/WkGzaYa/LU1FKd861R2efZ3JdjWm3s9zjbvMZco8HQ331ufzHZgWJa29gJSIi+TuBXlsrfMFfV65/CwuoalV6uxzbkPp5gjnzQdSO4G9jT7pOvn1yLcBXfHj2BV/2Qb0vbSdI9PC+N68O8m7lffl5379D78loR1Cs3SDRo1OP0Px2pMu1E+yF2JHfo5br5j9Qp/8sGiKtk6YrZLw8QnuPXW5Q/w3IT3xBp09oOo+v2m+W3s9lj13l/tCM6J7jdq6toK6xN0jMw/Lbm88eO95fleOrQSMXDXQ+gqmyA6P+dkiuBe6bj83Uf4Rp9w/eRs/n0nj+aBzM3z8/i+3t5vILVvgTZ/Zt2WY5+xNY2U/0vsB1/q+4O/v7Nk38Fonnqd/JyS/uqp0mJy/cVZVB9QNGF3/BZP5hc4W5eP0HJlf/2UrTvRX+CtHsn1i2Uz2N0QmwXLtrv07nVloEzO7cVDUNeJ63eTTlg3fiMNDMH7GEtCM0v/IBwE07r2Y5uwFWD/Y793uqchsnARPVQvrPdbJvMOwZL4/V3mOXu6//BuU3BfIJcDbepol9Uw8C0z3KfgtwSLk/qvJ3rNSpd0iN3eNQiPIhPL/luntH1KcskMTt277R7G7neWuydxxo/LorSfmAFW5wZpfZLJ1x/0iWN8Bq6Z872HfcbeYb0sG2QeLoBSb4D+T1U7yd5d4JsKb/hfvN9v+Buf0LcPf3zjyG1UM3cDzI0PrhBX7Vf2KRfQHKj1is/or2Q8ZfkIz/D7j6bxg7n9t/xwGHgq7xKRRWeHDPB8GmgL7xzKNANZdoDuDlnhNaSwmMF8DV7fYhGBHg9txN+DR2BcVr+/AX2I7Q/EYvq0DDzstehn7FyFOV29g74AL779geq737DC13X/8NzW96bW031YNnd+Pu53pvuifab09W7nBFUgct7kloiNFLTHqCNdM6DgUanYTlN7rAubrBP3wJW0ok9f4wzcMtIpDb8+Oct/qMXmICjdwu017ccX+s/WFTafUUPhbdP6D6jrvlEYLX8gErqL4pi8+e9eDKL7jOgUX8EWWr/7+gyN5uH/ZA/XBIYqf7BSP8C9w4fnr5V2D+v8gKK1Asv6DI3iOO3g6c8Bpev0ZV/gdkr/8Azl84DwN+BgCcjn/ZrC/LT0hmf+z8iyzY6CXO1RJ3vw9qZNtlCpw5VxSKDIjPgPS2/XTj8m47gbeZyN9qiKn+GVtvKgtgNt++PtRy3S178IFhCqQr531lNUm59WhfaDtC8xsBOaoHE1q7qk77aO04drn1eJnP2l+RVJb1ZO5mgndo/x3bI7Q3yIByg/pvQH5ZXD0oskk3qibJu4LSPdV+O6Dcoz+4EqLEwwoAFFLfV44FG+EyXWGRtT+/RZZgseoJw5br7ZBpHv7YjINplV/rwZISRRZj4TyyfHGfA4sYWevEWJUdx81X4FT743Q8ss5bBZLZ/DjnrV6j+vybOeffqi3dQPBY+8Pj+ha4mzmBoue4W5a7x2kos8YSk2HXZJ4T9/6zyT+IVr8J0CxvRDvzBKsHSHzpPHP1zFq0etNKp/SH1uTXXNv5WItnbmBI/WxV3u+8UxJM/k6UVZ5S7yTPP9TrtvMfTWrX31mcuZA2k6reycTBTFpPvm2WnrlLaTNZHNuJ6s37moklmwnldrq0fl3P52ilaeZy1HO/msWdl2OXDdWdB9U8tOFb3Ikenbyshz6atCHtGJKfSP3ggV03TzuGeKpyTV7NybPz02l7Tk5o/2m7XnZ6a0wPHS/Hau9jlRvSfxKYX1q/t5PO/fwEpjvmfpMBn8vQcjvpPQ8XPBaTigKONjfO5FqUggAQQIlOTf1AS7dBJtVV2Zu03Tp001T5wa2zMZLqen29KN1+oMXkdl6oHhzJ6/Zb8wZzvU3TWpzP73ZbMwexmoO3yd9qs8lT0Zt+qd7ja+9R90czTpt6m2bs1Yu9T9zzoKnn+3Z3WzDvXNSfSCQi4gaOdCwFkmiBU3Pv/67EEGUBzM6cq4KovuMpv989H4uI6CdQZjHGcyD9mmPtHmUWY4Zb3D9WAc/It9gfYQogWgDm/rDvFS0zxOM1ruT6pz3Vdr4nkY5piut8gvlr91L8AKNpNQ+j87c+A0QiIjTz+/TVEwck1Phu9kf2D0CdHxYgAihez4H08qc+1fJKIhERUY8iiXBmzx/UOeT6Zw4bvmNlVv3AQ0Np4PYn+XWiR8IgkYiIiIg6eLuZiIiIiDoYJBIRERFRB4NEIiIiIupgkEhEREREHQwS6duKo+5PKtHzwf37/SmS6hdijoH7lwBkcYSY4+CnwCAxyCck0StE9RJnA36PukgQd36yqD7YRvUB1/4ZK2qz++kYjp1fqKcq91DJN6rvj9YvP5oiAc7Q/U3p5+aZHk+zuPr948cKyJrfV36s/BuP3Y7Bjj1eAvMrku+oDwIxSAzyAtfyN4j8DSb9N3fjDiWSsxXOfb9dOan/PRkB4/pXr5X769cAUAJJXA+6CIjj9m/LPrUyG3aV4l4w6BtW7wVIe34z9RDHzi/UY5dbZtsx0loOHC/XB9b3qfcvbZUFsABgrt0thxu6f7+V4OPpEykzxEOOk7WLe4GxPx9lhjiqAq72EiM54HM+vXbyD3RxL4N+eabTjqe2b7xsAj1n8VzvAQLyq00vU2D+ujeb7xGDxEdUZjPcqHP/MfVUVT+tNwYwOqnWTep/NwogGgOnV9tfWrm9Ahbj9g+ZE40uAMkB6PYv8+TnwNkMGH7+oB/daArc/yRfJBx0PH0GRhe4lxwaGrkIpF5Mfo7V2YwX5EPtGy/T6/oY6hxTPdd7gID8GqMLXOkbLH6gHdUJEovk7ea2ahS9Qhy/91+IKD8iibfpovg9kvhVN3YpPyGJ7TzfIsneI44/btMU7zfbkwIoi/eIm/KTj63z2776lVl7e1JUdW3yi6JXiJJPdeJPyJK31ra3iJNPRzqflvj9bgl1/tLdYJnUB/AxoACcjtubkwWQGuDCGpmjKXBvgNVZ9VdNVl9ltP9KbdZFcTs4KIv2Vcko7gab9qXystheRo9i56+osto2ngPLefuvrc5fzEV7+64PSGb/BRf704a0oxGSH+DkFwFx8nWB1VOV65peAHoJGGf9kHJbf1X72vKE+3ef4PFcC+2Xsqiu6rfa4pn7F5xfZtWtThd7rlyEpAvtP3u/Fs7rxG5H4P4NLbfR2jfuxkPsOZ4+grJIENe3UqMoRpKVKLO4el2dfKpbreM5lst5++qfO1YAlFliXSms8gsxml7gSi+xdj7nRVLXpV7iOPGfz5u27Cy7QGLn1dm+FdSOskCWxK10cVIcZygEOfZ4Cctv+qvGcv76G7bzK4nFpG9E6bUYY63LP4hS7yS3E8pn0XgjOv+8XWU+i1a/iW4lXIvGG0ntdPJZ8vSNQH2w1lVy/ZtAvRGod5v3mHwtTXWG1c9dJ5J26ve5lZds6tCtW8Okb0Sldnt6mFQUlKRO/uFyEWh35VaqZJO5SUVU6qYQUUo2nSciIsZ5LSIanvfmIlDVktdvyNPqtfv+vrL72PV2pUraO8hU6wDnPYHtCM2vSWfnmaciakf/7/JU5frGjG+/hZabqmoMqXSb1phq3a59uGtbSL+E7t9ggeM5tF+a/Jq8RLZtsesYnJ/p5meMiIK0D2ID0g3pP416P2urf9yjZ23X/h1abq7r6zO6+74fgEmVqLQ9nvNUi1JKlNtHJhXV1w81kypROre6wkieKlGAk18uGrq1y03ePd9s8rPX5ako5bw3VVWdVbpNa4ykvnbUqrbv2BbUDuM5/0Kwp5++Lc8x9Wt9dWzwbVlB4tobWImISP5OoNfWCl/w15Xr38ICqlqV3i7HNqR+nmDOfBC1I/jb2JOuk2+fXAucD/Ig+4Iv+2Ddl7YTJHp435tXB2+38r78vO/fofcks+PDqN0gwqNTj9D8dqTLtRPUhNiR36OWK9v95i6tE9mAct2gZ8P05/HN9u8QIeN5R/3cfgmp75D8xBd0+oSm89jVf9odIzv07t8eu8r9oZlOoNbItRsM1YHBzn7oBn6bLZ38ctGAwFnaAWt/fpJrgTX+TKp6ArP+NvYHif3ldtvhsbefvrUdn+ODVfvvoEP8E9jebi6/YIU/cWbflm2Wsz+Blf1E7wtc5/+Ku7O/b9PEb5F4nvqdnPzirtppcvLCXVUZVD9gdPEXTOYfNndhitd/YHL1n6003VvhrxDN/ollO9XTGJ0Ay7W79ut0bpFFwOzOTVXT/fMvHkP54J3oCzTzPSwh7QjNr3wAcNPOq1nOboDVg/3O/Z6q3A1nTqIYAIvtbdCh5XqnS4wAtRp2izC0XxC4fwfbM56H9svJnol+g/KbAvkEOBtv08S+W/GB6Q7pv5NdnRPokHJ/VOXvWKlT75Aau+M5RPkwML/2nEQRgyssEMVZ9bEsH7DCDc7s29vN0hl/6JkWNcKpWuHBHYa7DGlHWSCJ27fDo9nd93H+3Sd2pnI9Y9sgcfQCE/wH8vop3s5y7wRY0//C/Wb7/8Dc/gW4+3tnCsrqoRs4HmRo/fACv+o/sci+AOVHLFZ/Rfsh4y9Ixv8HXP03jJ3P7b/D95EcbHwKhYEfsJYpoG+6c5KAao7QHMDLPSeqlhIYL4Cr23YQcXvuJnwau4LitX3YCGxHaH6jl57AylqGfnXIU5XbawRc3AO4qw5qQ8u9+739GqjG37KZfxMotF9C9++xDe2XfR/sofltJspLFdjfXgF34+7nf2+6J+q/Jyt3uOZrX6o5gwcavcRkue7sHgAwrfEcaHTylfmNML24R4o7/F5/ziedQNJanPG37Pmcr5eTvX8PtQS3o0RSjxdj1+v2vPf8e5T99j0oH7CC6puy+N2xHlz5Bdc5sIg/omwd/76gyN5uH/ZA/XBIYqf7BSP8C9zrBNPLvwLz/0VWWIFi+QVF9h5x9LZ3Aq1feP0aVfkfkL3+Azh/4ZzTPgMATse/bNaX5Scksz+O85fM6CXO1RJ3vw9qZNtlCpw5VwqKDIjPgPS2fZJe1kEAmr/oI7QbUs9oHltvKgtgNt++PtRy3S178Ad5CqQr531l9RDOjbUquB2h+Y2AHNWVttauqtM+WjuOXe4ORWIFdUPLvWunLUsgXgDppZNun9B+Cd2/xzagXy5TYD5rf7VQWdYP5TRXGAbkl8XVgyKbdKNq8rsrKN1T9d8B5R79wZUQJR5WAKCQ+r6aLNgIl+kKi6w9nosswWLVE+Ys19shUxZIYjvgmVb5tR7cKFFkMRatz0e/skgw3wR1o/p8mTnnyypPN9BSuENspy1LZPECq/TSe1WwX2g7qvFyOh5Z598CyWzec/491n77Dpg1lpgMu8bzlNz7zyb/IFr9JkCzvBHtzBOsHiDxpfPM1TNr0epNK53SH1oTVnNt52MtnrmBIfWzVXm/60ylExEx+TtRVnlKvZM8/1Cv285/NKldf2dx5kLa+ud6DGDSamL65m/znjlJaTMJHNsJ6M37mnkgm4nidrq0fl3Pu2ilaeZsOXPd3HkldtlQ3flNzcMJvsWdmNHJy3q4oUkb0o4h+YnUDxTYdfO0Y4hvXa5p2u9ZlOfBgH3l6np9avxtsT3l/t1n6Hje1y8Nk1dzGu102nrApxGSX1q/t5PO088h6UL7r9nH7uIes0L3b2i5nfSe8flYTCoKaM3J+xom16JUMy9QiU5N73w9k+qq7E3abh26aar80NS5qb9vUbozFEyeit7Ur1turpv5jMZbdiuvph6+xelPX16tdjR9Z+WhlJY8b9rnzGs88n7byx3LncUzPz9Q0NzM70gkIuIGjnQsBZJogVNz7/+uxBBlAczOnKuCqL6TKb/fPc+KiIg2yizGeA6kX3NM3qPMYsxwO+jLpmm3b7HfvokyQzxe40quf5hTd+d7EumYprjOJ5i/dm/hDTCaVr9y0PlbhgEiEdEQZr0E9NWPHWj8hJ7Lfitez4HBt/CfFq8kEhERfaUiiXBmz7vTOeT6RwoHiLoYJBIRERFRB283ExEREVEHg0QiIiIi6mCQSEREREQdDBKJiIiIqINBIn1bcdT9rVki+nkVyfa3xb8Wjy9ER8UgMcgnJNErRPUSZwN+j7pIEHd+6qw+mEX1Ac3+eSpqs/vpGI6dX6inKvdQyQ9WX/oxFQlwhu5vWf+snul5IYur312OH+l40vyu82Pl/6MrksP7hkFikBe4lr9B5G8w6b+5G3cokZytcO77rclJ/e/JCBjXv3qt3F+/BoASSOL6YBEBcdz+zdinVmbDrgLcCwZ9I+q9AGnPb6Ee4tj5hXqqcg91/YPVl348ZQEsAJhrd8vhhh5fvjfB54UnUmaIhxzvaxf3AuM7njS/YR3VS5wgS+LBAc30uid/AgBML1Ng/hqey1V7MUh8RGU2w4069x+zTlX103pjAKOTat2k/nejAKIxcHq1/aWV2ytgMQZ8VyeJiH4Uoylwfw34jo8/q6DzwnNRIJktcHorEKkWcwXc3XR+g5a+1ugCV/oGi4HBN3xBYpG83dxWjaJXiOP3/gtX5Uck8TZdFL9HEr/qxi7lJySxnedbJNl7xPHHbZri/WZ7UgBl8R5xU37yEXbx++pXZu3tSVHVtckvil4hSj7ViT8hS95a294iTj61yjtcid/vllDnL90Nlkl9gBwDCsDpuL05WQCpAS6sK5GjKXBvgNUZUADI6quM9l93zbooRqsxZdG+KhnF3WDTvsVRFtvbH1FclbdRVtvGc2A5t/J06gLUwa61fddAzZry6zJ9aUPa0QjJD3Dyi4A4affdUE9VbplZ+6zOL46cfdeTrq/czZjoaYu9vXBeJ85Y2NXe5n1xsk2XFFZ+nqvou/Kz+drr9suQcRWSX4jgz1stuL1FddfBbkvmmfsXnF9ge0PShfZz8LgKPL6ElovAdjRa+9DdeIg954VHUBYJ4s0VvRhJVqLM4up1dRKtbhmP51gu59srf1GEyB1TAMosQbxJU+XXUfwDN2hfRBlNr3HruyJYZt0rjp4s0bRlV9lFssmnije26eMkc+KNug+a7XGyPQQ1+dRXP6v3F1Z+MRLneLUzP5unvUlc1XebpqiuulptjZOidwhOf9VYzl/3bu8lFpO+EaXXYoy1Lv8gSr2T3E4on0Xjjej883aV+Sxa/Sa6lXAtGm8ktdPJZ8nTNwL1wVpXyfVvAvVGoN5t3mPytTTVGVY/d51I2qnf51ZesqlDt24Nk74Rldrt6WFSUVCSOvmHy0Wg3ZVbqZJN5iYVUambQkQp2XSeiIgY57WIaHjem4tAVUtevyFPq9fu+/vK7mPX25Uqae8gU60DnPcEtiM0vyadnWeeiqgd/b/LU5Urpr3PRESMEVGQ1och192+EiOiVTtdqqoxpNJtHY2p1vn2oUadXlvjxsowpL0mrfspr+qkUG03db3tz0RIfiLh/RI6roLzCxX4eQtub52fXb9mDNptCc4vtL0D0gX1c23fuLLtOr4Elxvajlqu6/s89Tj9wZhUiUrbx6s81aKUEuX2pUlFdfqrzaRKlM6trjCSp0oU4OSXiwZEp2Z3t+ValEqdNEZyrVqHWZOqqs4q3Z7XjZHU1w4RyTUESgmUlrTe1ybf1nvTDnsY5KkopbfDwKR1u6rjVaogULoaOrkWQA/Lr1orGkq0M/60ghO/GE/8AkHf/jkwJrGCxLU3sBIRkfydQK+tFb7gryvXv4UFVLUqvV2ObUj9PMGc+SBqR/C3sSddJ98+9QDx1jfEvuDLPhj2pe0EiR7e9+bVQc+tvC8/7/t36D2I7wiKtRskenTqEZrfjnS5doK9EDvye9Rypc7TDQ48fPtRPH3oBhUbxl933QR3PoHtdetg95lJrTwC86tWhPWLj1sfka/Lzyvk8zagvSGflyH5Bbc3NJ2Ht59rO8eVo/f40sNb7le044djRPecp3LtBnVVf+0OEvOB+eWS6iqABKoAqwnYGqnqCWycuphU9QRI/jZW9XHXNvrbIbkWWMcruw6tNppU1CaPwPyqFaKhOv0QZOf+qYNybyX6bW83l1+wwp84s2/LNsvZn8DKfqL3Ba7zf8Xd2d+3aeK3SDxP/U5OfnFX7TQ5eeGuqgyqHzC6+Asm8w+buwPF6z8wufrPVprurfBXiGb/xHcxI2J0AizX7tqv07kFFQGzOzdVTQOe520eTfnQP0H71Ln9ENKO0PzKBwA37bya5ewGWD3Y79zvqcoFAEyBfAKcjbd5xe7t4QJYNrezHL4x550uMQLUyn9r7aRn0By7vYPyC+mXwHEFhOc3yJ7P26D21g8+7DIov9D2BqYL7mdL37gaIrjcwHY8B+XvWKlT79Abu8fdEOXDsPxGU1xc3+O+mZN4+yvWi7H14EqB9XLiH86jE0yW69YMAP/0rhFO1QoPnt036RtX5QNWuMGZdWt4s3Q+HwEG5TfFdT7B3dnYut3suW1eFkji9u3raHZ39PhlGySOXmCC/0BeP8XbWe6dAGv6X7jfbP8fmNu/AHd/70zxWD10A8eDDK0fXuBX/ScW2Reg/IjF6q9oP2T8Bcn4/4Cr/4ax87n9d3iG8nDjUyj4B2aYKaBv/HNgUABzAC99n5w+JTBeAFe324dgRIDbczfh0/AFKI21PewD2xGa3+hldYK287KXoV/N8VTlNqbXVj6metDpbmyNo2l/gOcLcO9+b78GdgeafY7d3qH57e2XwHHV2JvfkQ1t774Dz9D8Qtu7N93Afj6ageXubcfTa772pZozeKDRy06g1TCt424gT+DWcPMrEmeOHYDRaIrrK43l2tRrpr0Bni8gXfYcr3oDzT6jl5hAI6+D187ifj72GZrf9HoTOIsYmHr8bfurRFKPZ2Pnc3veH7+UD1hBDZ7iaj248guuc2ARf0TZ2iFfUGRvtw97oH44JLHT/YIR/gXu9ZPp5V+B+f8iK6xAsfyCInuPOHrrn7DZK7x+jar8D8he/wGcv3DOaZ8BAKfjXzbry/ITktkfx4nERy9xrpa4+31QI9suU+DM+Qu2yID4DEhv2yfp5d32xN9MgG81pP7Qja03lQUwm29fH2q57pbtfvr3mgLpynlfWT2Ec2OtCm5HaH4jIEc1ob+1q+q0j9aOY5dbP7CU2PmNqsnvrqsJMHPKLcvqqsqVe/C7a9exLIF4AaSXTrp9jt3eAfkF9UvouArN79gGtPcyBeaz9kM+ZVk/TNU8zDYgv9D2BqUb0M9HNaDcoHZYjv7gSogSDysAUEh9X7EWbITLdIVF1j5eFVmCxaon3Fiut0Or+QqbzXiZVvm1HqAoUWQxFq3jX+XmLEbWCgRKFP+4gf5126aLqwnuZln7vF+WyGZ3mDjHK4U7xLGVtiyRxQus0kvv1c1+ozrecMqt2zI8MA/Pr8xiRImdboQRxk58VY3n0/HIil8KJLN5f/xi1lhiMuzaEpwHV0SqB0G0+k2AZnkj2pknWD1A4kvnmatn1qLVm1Y6pT+0Jlzm2s7HWjxzA0PqZ6vyfuefgpW/E2WVp9Q7yfMP9brt/EeT2vV3FmcupK1/jsQAJq0mTG/+ru2ZK5M2k6frif55PdEa1vykzQRrO139oEAzP6mVppkTVc+ZahZ3gohdNlR3/lDz0IZvcSdIdPKyHvpo0oa0Y0h+IvWEfbtunnYM8RTlpkpE+/LzjBd3XDUPhzR0vT41/rbYmrTu4hv7u9rrG3tN3jqv5yRa2/bl1wjtl9BxFZpfCF+bd33eQtor1VwvUfbnrq6zW8WQ/ELbG5outJ9Dx1Xo8SW03NB2NJ7iwZX6gYn2XLbDmVyLUvW8QKjqYZLU/8CHSfV2DiGUaHe8eNNU+cGqc64hOs1Fb8qt0/rObyZtp1O6/bHQ1XqVGm/ZtiZtZ3HHlVQPlnTqZx2v7PWpsfKuj1dVPbZzKnfm15SZKlHal67dDpPb7UT1AEzelNmd/+idExogEhFxA0c6lgJJtMCpufd/V2KIsgBmZ85VQVTfpZXf757HREREz06ZxRjPgfRrzi17lFmMGW5x/1gF0LdTZojHa1zJ9eCQofM9iXRM1QTU+euhl6Yto2n1KwKdv5EZIBIR/YzMegnoq0cLEOl5KV7PgcG33Cu8kkhERERA/UDJmT1/UOeQ60PCC3oOGCQSERERUQdvNxMRERFRB4NEIiIiIupgkEhEREREHQwSiYiIiKjjq4PELK6+tJ/a2C9ERET0I+sNEsus+nW1zW+hx+1feXoqiVUnBmFEREREj8P/FTglEI+BKwNMv9Mv6ywzYIbu79D/MEogngH39+4GIiIioqfXeyUR6vsNEImIiIjocbWDxLK+xTwGlkvrVnMEJM4vy+287Vtsb1FnSZ0mqX6GuLmF3cqvrNLZt7fjBPiau9ut2+UxkJXbOrtlJ3H7tnrmFty0p36v3Q63njv7pZbF/j6O4jrB0P5DYDuIiIiIArWDxFH9M8EGUKr9U8Hur/Jc1+tN2l4PAJjWeSyBu9Mq3fkKGC+qW9iSAzdnVnA1Al5etn+i+ArAuAmaBiozYLYGbpv8bgHMgBsAqbHaUlS3fC/v2z+JfPLaCcKm1bZcAzeLqh3nebXu9lcr3b5+qV3c+/tYmlvPQ/svtB1EREREgfpvNx+D2s4ZPJkA6ry+hT0GFABjJR05t7anl1WaQ7yeA1fXwCbLEXBx280vWwDnt1a62vQSWC2clTV1XgVgF3WgOZp23380gf13SDuIiIiIdnncIDGUe6s0AqIZsHTThSiBlQI6P0c+AibOqvUSOHEjK9Rpl4DvItzkxF3z9A5pBxEREdEu30WQmIwBXAHGvvXqufIXpC8wKoGVs+pUAQ++eXt9geZ36rm0g4iIiL4f30WQCACn4+3t0rIEkkOvJAK4TIGF/UBJCWSe/C6ugLtZVd5GnXZyZa17LEvruyebq6mJkybAk7eDiIiInh+x5a3HKFqLzrfJTNrdvll0N5/UiOTa2m5ElLXN5NvXgIhSIrm1ril6b7kWk1p5qqocXZfXTiiilZVPnda2qbu7qHa6IfVr0tvt1mm9YWD/VZntbwcRERFRKP+XaT9TSQScGuDCN3+PiIiIiDZ+miCxzIDxHWDuu08BExEREVHbdzMn8eiaLwavl/EdkHu+JoaIiIiIun6aK4lEREREFG4TJEaRu4meE/4pQEREREPwSiIRERERdTzfOYlEREREdDAGiURERETUwSCRiIiIiDoYJBIRERFRB4NEIiIiIupgkEhEREREHQwSiYiIiKiDQSIRERERdTBIJCIiIqIOBolERERE1MEgkYiIiIg6GCQSERERUQeDRCIiIiLqYJBIRERERB0MEomIiIiog0EiEREREXUwSCQiIiKijv8HNfBfd2/VBRoAAAAASUVORK5CYII=;" vertex="1" parent="1">
          <mxGeometry x="120" y="120" width="609.3" height="660" as="geometry" />
        </mxCell>
        <mxCell id="hMY7HIOHffCvBzzPZQcq-2" value="&lt;h1 style=&quot;margin-top: 0px;&quot;&gt;Pseudocódigo:&lt;/h1&gt;" style="text;html=1;whiteSpace=wrap;overflow=hidden;rounded=0;fontSize=23;align=center;" vertex="1" parent="1">
          <mxGeometry x="240" y="20" width="370" height="80" as="geometry" />
        </mxCell>
        <mxCell id="hMY7HIOHffCvBzzPZQcq-3" value="&lt;h1 style=&quot;margin-top: 0px;&quot;&gt;Diagrama:&lt;/h1&gt;" style="text;html=1;whiteSpace=wrap;overflow=hidden;rounded=0;fontSize=23;align=center;" vertex="1" parent="1">
          <mxGeometry x="239.65" y="1140" width="370" height="80" as="geometry" />
        </mxCell>
        <mxCell id="hMY7HIOHffCvBzzPZQcq-6" style="edgeStyle=orthogonalEdgeStyle;rounded=0;orthogonalLoop=1;jettySize=auto;html=1;" edge="1" parent="1" source="hMY7HIOHffCvBzzPZQcq-4" target="hMY7HIOHffCvBzzPZQcq-5">
          <mxGeometry relative="1" as="geometry" />
        </mxCell>
        <mxCell id="hMY7HIOHffCvBzzPZQcq-4" value="Início" style="strokeWidth=2;html=1;shape=mxgraph.flowchart.terminator;whiteSpace=wrap;" vertex="1" parent="1">
          <mxGeometry x="374.90999999999997" y="1210" width="100" height="60" as="geometry" />
        </mxCell>
        <mxCell id="hMY7HIOHffCvBzzPZQcq-8" style="edgeStyle=orthogonalEdgeStyle;rounded=0;orthogonalLoop=1;jettySize=auto;html=1;" edge="1" parent="1" source="hMY7HIOHffCvBzzPZQcq-5" target="hMY7HIOHffCvBzzPZQcq-7">
          <mxGeometry relative="1" as="geometry" />
        </mxCell>
        <mxCell id="hMY7HIOHffCvBzzPZQcq-5" value="qtdPessoas" style="shape=manualInput;whiteSpace=wrap;html=1;" vertex="1" parent="1">
          <mxGeometry x="384.90999999999997" y="1290" width="80" height="70" as="geometry" />
        </mxCell>
        <mxCell id="hMY7HIOHffCvBzzPZQcq-17" style="edgeStyle=orthogonalEdgeStyle;rounded=0;orthogonalLoop=1;jettySize=auto;html=1;entryX=0.5;entryY=0;entryDx=0;entryDy=0;" edge="1" parent="1" source="hMY7HIOHffCvBzzPZQcq-7" target="hMY7HIOHffCvBzzPZQcq-15">
          <mxGeometry relative="1" as="geometry" />
        </mxCell>
        <mxCell id="hMY7HIOHffCvBzzPZQcq-24" value="Falso" style="edgeLabel;html=1;align=center;verticalAlign=middle;resizable=0;points=[];" vertex="1" connectable="0" parent="hMY7HIOHffCvBzzPZQcq-17">
          <mxGeometry x="-0.1877" y="-1" relative="1" as="geometry">
            <mxPoint as="offset" />
          </mxGeometry>
        </mxCell>
        <mxCell id="hMY7HIOHffCvBzzPZQcq-7" value="qtdPessoas &amp;lt; 50" style="rhombus;whiteSpace=wrap;html=1;" vertex="1" parent="1">
          <mxGeometry x="364.90999999999997" y="1390" width="120" height="120" as="geometry" />
        </mxCell>
        <mxCell id="hMY7HIOHffCvBzzPZQcq-10" value="Fim" style="strokeWidth=2;html=1;shape=mxgraph.flowchart.terminator;whiteSpace=wrap;" vertex="1" parent="1">
          <mxGeometry x="569.91" y="1590" width="100" height="60" as="geometry" />
        </mxCell>
        <mxCell id="hMY7HIOHffCvBzzPZQcq-13" style="edgeStyle=orthogonalEdgeStyle;rounded=0;orthogonalLoop=1;jettySize=auto;html=1;" edge="1" parent="1" source="hMY7HIOHffCvBzzPZQcq-11" target="hMY7HIOHffCvBzzPZQcq-10">
          <mxGeometry relative="1" as="geometry" />
        </mxCell>
        <mxCell id="hMY7HIOHffCvBzzPZQcq-11" value="&quot;Quantidade de convidados insuficiente!&quot;" style="strokeWidth=2;html=1;shape=mxgraph.flowchart.display;whiteSpace=wrap;" vertex="1" parent="1">
          <mxGeometry x="529.91" y="1470" width="180" height="90" as="geometry" />
        </mxCell>
        <mxCell id="hMY7HIOHffCvBzzPZQcq-14" style="edgeStyle=orthogonalEdgeStyle;rounded=0;orthogonalLoop=1;jettySize=auto;html=1;exitX=1;exitY=0.5;exitDx=0;exitDy=0;entryX=0.578;entryY=-0.011;entryDx=0;entryDy=0;entryPerimeter=0;" edge="1" parent="1" source="hMY7HIOHffCvBzzPZQcq-7" target="hMY7HIOHffCvBzzPZQcq-11">
          <mxGeometry relative="1" as="geometry" />
        </mxCell>
        <mxCell id="hMY7HIOHffCvBzzPZQcq-23" value="Verdadeiro" style="edgeLabel;html=1;align=center;verticalAlign=middle;resizable=0;points=[];" vertex="1" connectable="0" parent="hMY7HIOHffCvBzzPZQcq-14">
          <mxGeometry x="-0.1191" y="1" relative="1" as="geometry">
            <mxPoint as="offset" />
          </mxGeometry>
        </mxCell>
        <mxCell id="hMY7HIOHffCvBzzPZQcq-18" style="edgeStyle=orthogonalEdgeStyle;rounded=0;orthogonalLoop=1;jettySize=auto;html=1;entryX=0.5;entryY=0;entryDx=0;entryDy=0;" edge="1" parent="1" source="hMY7HIOHffCvBzzPZQcq-15" target="hMY7HIOHffCvBzzPZQcq-16">
          <mxGeometry relative="1" as="geometry" />
        </mxCell>
        <mxCell id="hMY7HIOHffCvBzzPZQcq-15" value="qtdCarne &amp;lt;- 0.3 * pessoas" style="rounded=1;whiteSpace=wrap;html=1;absoluteArcSize=1;arcSize=14;strokeWidth=2;" vertex="1" parent="1">
          <mxGeometry x="184.21" y="1480" width="160.35" height="30" as="geometry" />
        </mxCell>
        <mxCell id="hMY7HIOHffCvBzzPZQcq-21" style="edgeStyle=orthogonalEdgeStyle;rounded=0;orthogonalLoop=1;jettySize=auto;html=1;entryX=0.5;entryY=0;entryDx=0;entryDy=0;" edge="1" parent="1" source="hMY7HIOHffCvBzzPZQcq-16" target="hMY7HIOHffCvBzzPZQcq-19">
          <mxGeometry relative="1" as="geometry" />
        </mxCell>
        <mxCell id="hMY7HIOHffCvBzzPZQcq-16" value="qtdCarne &amp;lt;- qtdCarne + (qtdCarne * 0.08)" style="rounded=1;whiteSpace=wrap;html=1;absoluteArcSize=1;arcSize=14;strokeWidth=2;" vertex="1" parent="1">
          <mxGeometry x="149.38" y="1530" width="230" height="30" as="geometry" />
        </mxCell>
        <mxCell id="hMY7HIOHffCvBzzPZQcq-22" value="" style="edgeStyle=orthogonalEdgeStyle;rounded=0;orthogonalLoop=1;jettySize=auto;html=1;" edge="1" parent="1" source="hMY7HIOHffCvBzzPZQcq-19" target="hMY7HIOHffCvBzzPZQcq-20">
          <mxGeometry relative="1" as="geometry" />
        </mxCell>
        <mxCell id="hMY7HIOHffCvBzzPZQcq-19" value="qtdBebida &amp;lt;- 1.5 * pessoas" style="rounded=1;whiteSpace=wrap;html=1;absoluteArcSize=1;arcSize=14;strokeWidth=2;" vertex="1" parent="1">
          <mxGeometry x="149.38" y="1575" width="230" height="30" as="geometry" />
        </mxCell>
        <mxCell id="hMY7HIOHffCvBzzPZQcq-26" style="edgeStyle=orthogonalEdgeStyle;rounded=0;orthogonalLoop=1;jettySize=auto;html=1;entryX=0.5;entryY=0;entryDx=0;entryDy=0;" edge="1" parent="1" source="hMY7HIOHffCvBzzPZQcq-20" target="hMY7HIOHffCvBzzPZQcq-25">
          <mxGeometry relative="1" as="geometry" />
        </mxCell>
        <mxCell id="hMY7HIOHffCvBzzPZQcq-20" value="qtdBebida &amp;lt;- qtdBebida + (qtdBebida * 0.12)" style="rounded=1;whiteSpace=wrap;html=1;absoluteArcSize=1;arcSize=14;strokeWidth=2;" vertex="1" parent="1">
          <mxGeometry x="139.38" y="1620" width="250" height="30" as="geometry" />
        </mxCell>
        <mxCell id="hMY7HIOHffCvBzzPZQcq-25" value="qtdSobremesa &amp;lt;- pessoas" style="rounded=1;whiteSpace=wrap;html=1;absoluteArcSize=1;arcSize=14;strokeWidth=2;" vertex="1" parent="1">
          <mxGeometry x="184.56" y="1670" width="160.35" height="30" as="geometry" />
        </mxCell>
        <mxCell id="hMY7HIOHffCvBzzPZQcq-27" value="pessoas" style="strokeWidth=2;html=1;shape=mxgraph.flowchart.display;whiteSpace=wrap;" vertex="1" parent="1">
          <mxGeometry x="209.03" y="1730" width="110.7" height="50" as="geometry" />
        </mxCell>
        <mxCell id="hMY7HIOHffCvBzzPZQcq-28" value="qtdCarne" style="strokeWidth=2;html=1;shape=mxgraph.flowchart.display;whiteSpace=wrap;" vertex="1" parent="1">
          <mxGeometry x="209.03" y="1810" width="110.7" height="50" as="geometry" />
        </mxCell>
        <mxCell id="hMY7HIOHffCvBzzPZQcq-29" value="qtdBebida" style="strokeWidth=2;html=1;shape=mxgraph.flowchart.display;whiteSpace=wrap;" vertex="1" parent="1">
          <mxGeometry x="209.03" y="1890" width="110.7" height="50" as="geometry" />
        </mxCell>
        <mxCell id="hMY7HIOHffCvBzzPZQcq-38" value="" style="edgeStyle=orthogonalEdgeStyle;rounded=0;orthogonalLoop=1;jettySize=auto;html=1;" edge="1" parent="1" source="hMY7HIOHffCvBzzPZQcq-30" target="hMY7HIOHffCvBzzPZQcq-37">
          <mxGeometry relative="1" as="geometry" />
        </mxCell>
        <mxCell id="hMY7HIOHffCvBzzPZQcq-30" value="qtdSobremesa" style="strokeWidth=2;html=1;shape=mxgraph.flowchart.display;whiteSpace=wrap;" vertex="1" parent="1">
          <mxGeometry x="209.03" y="1970" width="110.7" height="50" as="geometry" />
        </mxCell>
        <mxCell id="hMY7HIOHffCvBzzPZQcq-33" style="edgeStyle=orthogonalEdgeStyle;rounded=0;orthogonalLoop=1;jettySize=auto;html=1;entryX=0.5;entryY=0;entryDx=0;entryDy=0;entryPerimeter=0;" edge="1" parent="1" source="hMY7HIOHffCvBzzPZQcq-25" target="hMY7HIOHffCvBzzPZQcq-27">
          <mxGeometry relative="1" as="geometry" />
        </mxCell>
        <mxCell id="hMY7HIOHffCvBzzPZQcq-34" style="edgeStyle=orthogonalEdgeStyle;rounded=0;orthogonalLoop=1;jettySize=auto;html=1;entryX=0.5;entryY=0;entryDx=0;entryDy=0;entryPerimeter=0;" edge="1" parent="1" source="hMY7HIOHffCvBzzPZQcq-27" target="hMY7HIOHffCvBzzPZQcq-28">
          <mxGeometry relative="1" as="geometry" />
        </mxCell>
        <mxCell id="hMY7HIOHffCvBzzPZQcq-35" style="edgeStyle=orthogonalEdgeStyle;rounded=0;orthogonalLoop=1;jettySize=auto;html=1;entryX=0.5;entryY=0;entryDx=0;entryDy=0;entryPerimeter=0;" edge="1" parent="1" source="hMY7HIOHffCvBzzPZQcq-28" target="hMY7HIOHffCvBzzPZQcq-29">
          <mxGeometry relative="1" as="geometry" />
        </mxCell>
        <mxCell id="hMY7HIOHffCvBzzPZQcq-36" style="edgeStyle=orthogonalEdgeStyle;rounded=0;orthogonalLoop=1;jettySize=auto;html=1;entryX=0.5;entryY=0;entryDx=0;entryDy=0;entryPerimeter=0;" edge="1" parent="1" source="hMY7HIOHffCvBzzPZQcq-29" target="hMY7HIOHffCvBzzPZQcq-30">
          <mxGeometry relative="1" as="geometry" />
        </mxCell>
        <mxCell id="hMY7HIOHffCvBzzPZQcq-37" value="Fim" style="strokeWidth=2;html=1;shape=mxgraph.flowchart.terminator;whiteSpace=wrap;" vertex="1" parent="1">
          <mxGeometry x="214.38" y="2050" width="100" height="60" as="geometry" />
        </mxCell>
      </root>
    </mxGraphModel>
  </diagram>
</mxfile>
